<mxfile host="Electron" agent="Mozilla/5.0 (Windows NT 10.0; Win64; x64) AppleWebKit/537.36 (KHTML, like Gecko) draw.io/25.0.1 Chrome/128.0.6613.186 Electron/32.2.6 Safari/537.36" version="25.0.1">
  <diagram name="Page-1" id="ee8GucKMwhRsPF9MjmTV">
    <mxGraphModel dx="2231" dy="1367" grid="1" gridSize="10" guides="1" tooltips="1" connect="1" arrows="1" fold="1" page="1" pageScale="1" pageWidth="850" pageHeight="1100" math="0" shadow="0">
      <root>
        <mxCell id="0" />
        <mxCell id="1" parent="0" />
        <mxCell id="GnrDczEZxaMrEFNFUuwD-165" value="" style="rounded=1;whiteSpace=wrap;html=1;fillColor=#E6E6E6;strokeColor=#1A1A1A;arcSize=2;movable=1;resizable=1;rotatable=1;deletable=1;editable=1;locked=0;connectable=1;" parent="1" vertex="1">
          <mxGeometry x="600" y="311" width="496" height="529" as="geometry" />
        </mxCell>
        <mxCell id="vcLE8csJAE1lBY_zovCR-63" value="" style="rounded=1;whiteSpace=wrap;html=1;fillColor=#FF99FF;strokeColor=none;arcSize=7;" vertex="1" parent="1">
          <mxGeometry x="779" y="353" width="220" height="124" as="geometry" />
        </mxCell>
        <mxCell id="vcLE8csJAE1lBY_zovCR-55" value="" style="rounded=1;whiteSpace=wrap;html=1;fillColor=#C2C2FF;strokeColor=none;arcSize=4;" vertex="1" parent="1">
          <mxGeometry x="779" y="619" width="220" height="194" as="geometry" />
        </mxCell>
        <mxCell id="vcLE8csJAE1lBY_zovCR-56" value="&lt;b style=&quot;&quot;&gt;&amp;nbsp; Data Collector&lt;/b&gt;" style="rounded=1;whiteSpace=wrap;html=1;fillColor=#000033;strokeColor=none;arcSize=29;fontColor=#FFFFFF;align=left;" vertex="1" parent="1">
          <mxGeometry x="784.88" y="624.75" width="104.12" height="20" as="geometry" />
        </mxCell>
        <mxCell id="vcLE8csJAE1lBY_zovCR-52" value="" style="rounded=1;whiteSpace=wrap;html=1;fillColor=#CC99FF;strokeColor=none;arcSize=7;" vertex="1" parent="1">
          <mxGeometry x="779" y="485" width="220" height="126" as="geometry" />
        </mxCell>
        <mxCell id="YWgGbhT9v-dE-4aeQCzL-33" value="" style="rounded=1;whiteSpace=wrap;html=1;fillColor=#CCCCFF;strokeColor=#1A1A1A;arcSize=2;movable=1;resizable=1;rotatable=1;deletable=1;editable=1;locked=0;connectable=1;" parent="1" vertex="1">
          <mxGeometry x="70" y="314" width="500" height="526" as="geometry" />
        </mxCell>
        <mxCell id="qGfMKpQDj4KVWiZ2LK5q-96" value="" style="group" parent="1" vertex="1" connectable="0">
          <mxGeometry x="280" y="718" width="70" height="95" as="geometry" />
        </mxCell>
        <mxCell id="qGfMKpQDj4KVWiZ2LK5q-97" value="" style="endArrow=none;html=1;rounded=0;exitX=0.5;exitY=0;exitDx=0;exitDy=0;strokeWidth=3;strokeColor=#000000;" parent="qGfMKpQDj4KVWiZ2LK5q-96" source="qGfMKpQDj4KVWiZ2LK5q-100" edge="1">
          <mxGeometry width="50" height="50" relative="1" as="geometry">
            <mxPoint x="158" y="83" as="sourcePoint" />
            <mxPoint x="34" as="targetPoint" />
          </mxGeometry>
        </mxCell>
        <mxCell id="qGfMKpQDj4KVWiZ2LK5q-98" value="" style="group" parent="qGfMKpQDj4KVWiZ2LK5q-96" vertex="1" connectable="0">
          <mxGeometry x="11.699999999999989" y="36" width="45.7" height="35" as="geometry" />
        </mxCell>
        <mxCell id="qGfMKpQDj4KVWiZ2LK5q-99" value="" style="rounded=0;whiteSpace=wrap;html=1;fontColor=#CCCCCC;fillColor=#CCCCCC;strokeColor=#000000;" parent="qGfMKpQDj4KVWiZ2LK5q-98" vertex="1">
          <mxGeometry x="3.237397034596385" y="6.3" width="40.95683690280067" height="22.4" as="geometry" />
        </mxCell>
        <mxCell id="qGfMKpQDj4KVWiZ2LK5q-100" value="" style="ellipse;whiteSpace=wrap;html=1;aspect=fixed;fontColor=#CCCCCC;fillColor=#0066CC;strokeColor=#000000;" parent="qGfMKpQDj4KVWiZ2LK5q-98" vertex="1">
          <mxGeometry x="8.055848434925858" y="3.5" width="28" height="28" as="geometry" />
        </mxCell>
        <mxCell id="qGfMKpQDj4KVWiZ2LK5q-101" value="" style="rounded=1;whiteSpace=wrap;html=1;fontColor=#CCCCCC;fillColor=#CCCCCC;strokeColor=#000000;" parent="qGfMKpQDj4KVWiZ2LK5q-98" vertex="1">
          <mxGeometry width="7.528830313014829" height="35" as="geometry" />
        </mxCell>
        <mxCell id="qGfMKpQDj4KVWiZ2LK5q-102" value="" style="rounded=1;whiteSpace=wrap;html=1;fontColor=#CCCCCC;fillColor=#CCCCCC;strokeColor=#000000;" parent="qGfMKpQDj4KVWiZ2LK5q-98" vertex="1">
          <mxGeometry x="38.17116968698517" width="7.528830313014829" height="35" as="geometry" />
        </mxCell>
        <mxCell id="qGfMKpQDj4KVWiZ2LK5q-103" value="" style="ellipse;whiteSpace=wrap;html=1;aspect=fixed;fontColor=#CCCCCC;fillColor=#FFFFFF;strokeColor=#000000;" parent="qGfMKpQDj4KVWiZ2LK5q-98" vertex="1">
          <mxGeometry x="11.820263591433273" y="7" width="21" height="21" as="geometry" />
        </mxCell>
        <mxCell id="qGfMKpQDj4KVWiZ2LK5q-104" value="" style="rounded=0;whiteSpace=wrap;html=1;fillColor=#4D4D4D;strokeColor=#000000;" parent="qGfMKpQDj4KVWiZ2LK5q-98" vertex="1">
          <mxGeometry x="15.579999999999998" y="12.6" width="13.42" height="7.4" as="geometry" />
        </mxCell>
        <mxCell id="qGfMKpQDj4KVWiZ2LK5q-105" value="&lt;b&gt;&lt;font style=&quot;color: rgb(0, 0, 0);&quot;&gt;Sensor 01&lt;/font&gt;&lt;/b&gt;" style="rounded=0;whiteSpace=wrap;html=1;strokeColor=none;fillColor=none;" parent="qGfMKpQDj4KVWiZ2LK5q-96" vertex="1">
          <mxGeometry y="73" width="70" height="20" as="geometry" />
        </mxCell>
        <mxCell id="YWgGbhT9v-dE-4aeQCzL-59" value="" style="rounded=1;whiteSpace=wrap;html=1;fillColor=#CCFFCC;strokeColor=none;arcSize=7;" parent="1" vertex="1">
          <mxGeometry x="92" y="369" width="208" height="90" as="geometry" />
        </mxCell>
        <mxCell id="YWgGbhT9v-dE-4aeQCzL-24" value="" style="endArrow=none;html=1;rounded=1;exitX=0.5;exitY=0;exitDx=0;exitDy=0;curved=0;strokeWidth=3;strokeColor=#006600;entryX=0.5;entryY=1;entryDx=0;entryDy=0;" parent="1" target="YWgGbhT9v-dE-4aeQCzL-19" edge="1">
          <mxGeometry width="50" height="50" relative="1" as="geometry">
            <mxPoint x="495" y="669" as="sourcePoint" />
            <mxPoint x="440" y="599" as="targetPoint" />
            <Array as="points">
              <mxPoint x="495" y="639" />
              <mxPoint x="440" y="639" />
            </Array>
          </mxGeometry>
        </mxCell>
        <mxCell id="YWgGbhT9v-dE-4aeQCzL-16" value="" style="rounded=1;whiteSpace=wrap;html=1;fillColor=#CCFFFF;strokeColor=none;arcSize=7;" parent="1" vertex="1">
          <mxGeometry x="90" y="509" width="459" height="100" as="geometry" />
        </mxCell>
        <mxCell id="YWgGbhT9v-dE-4aeQCzL-14" value="" style="image;points=[];aspect=fixed;html=1;align=center;shadow=0;dashed=0;image=img/lib/allied_telesis/computer_and_terminals/Server_Desktop.svg;" parent="1" vertex="1">
          <mxGeometry x="113.69999999999999" y="543" width="41.02" height="52" as="geometry" />
        </mxCell>
        <mxCell id="YWgGbhT9v-dE-4aeQCzL-17" value="&lt;b&gt;&lt;font style=&quot;color: rgb(0, 0, 0);&quot;&gt;Server 01&lt;/font&gt;&lt;/b&gt;" style="rounded=0;whiteSpace=wrap;html=1;strokeColor=none;fillColor=none;" parent="1" vertex="1">
          <mxGeometry x="100" y="519" width="70" height="20" as="geometry" />
        </mxCell>
        <mxCell id="YWgGbhT9v-dE-4aeQCzL-18" value="" style="rounded=1;whiteSpace=wrap;html=1;fillColor=#99FFFF;strokeColor=#1A1A1A;arcSize=7;" parent="1" vertex="1">
          <mxGeometry x="176" y="519" width="130" height="80" as="geometry" />
        </mxCell>
        <mxCell id="YWgGbhT9v-dE-4aeQCzL-20" value="&lt;b&gt;&lt;font style=&quot;color: rgb(0, 0, 0);&quot;&gt;SCADA&lt;/font&gt;&lt;/b&gt;" style="rounded=0;whiteSpace=wrap;html=1;strokeColor=none;fillColor=none;" parent="1" vertex="1">
          <mxGeometry x="205" y="520" width="70" height="20" as="geometry" />
        </mxCell>
        <mxCell id="YWgGbhT9v-dE-4aeQCzL-21" value="&lt;font color=&quot;#000000&quot;&gt;&lt;b&gt;OPC UA&lt;/b&gt;&lt;/font&gt;" style="rounded=0;whiteSpace=wrap;html=1;strokeColor=none;fillColor=none;" parent="1" vertex="1">
          <mxGeometry x="405" y="521" width="70" height="20" as="geometry" />
        </mxCell>
        <mxCell id="YWgGbhT9v-dE-4aeQCzL-25" value="" style="endArrow=none;html=1;rounded=0;exitX=0.5;exitY=0;exitDx=0;exitDy=0;strokeWidth=3;strokeColor=#FF0000;" parent="1" edge="1">
          <mxGeometry width="50" height="50" relative="1" as="geometry">
            <mxPoint x="315" y="669" as="sourcePoint" />
            <mxPoint x="315" y="639" as="targetPoint" />
          </mxGeometry>
        </mxCell>
        <mxCell id="YWgGbhT9v-dE-4aeQCzL-30" style="edgeStyle=orthogonalEdgeStyle;rounded=0;orthogonalLoop=1;jettySize=auto;html=1;exitX=0;exitY=0.5;exitDx=0;exitDy=0;entryX=1;entryY=0.5;entryDx=0;entryDy=0;endArrow=none;startFill=0;strokeColor=#0000CC;strokeWidth=3;" parent="1" source="YWgGbhT9v-dE-4aeQCzL-19" target="YWgGbhT9v-dE-4aeQCzL-18" edge="1">
          <mxGeometry relative="1" as="geometry" />
        </mxCell>
        <mxCell id="YWgGbhT9v-dE-4aeQCzL-19" value="" style="rounded=1;whiteSpace=wrap;html=1;fillColor=#99FFFF;strokeColor=#1A1A1A;arcSize=7;" parent="1" vertex="1">
          <mxGeometry x="380" y="519" width="120" height="80" as="geometry" />
        </mxCell>
        <mxCell id="YWgGbhT9v-dE-4aeQCzL-27" value="&lt;b&gt;&lt;font style=&quot;color: rgb(0, 0, 0);&quot;&gt;OPC UA&lt;/font&gt;&lt;/b&gt;" style="rounded=0;whiteSpace=wrap;html=1;strokeColor=none;fillColor=none;" parent="1" vertex="1">
          <mxGeometry x="405" y="521" width="70" height="20" as="geometry" />
        </mxCell>
        <mxCell id="YWgGbhT9v-dE-4aeQCzL-28" value="&lt;b&gt;&lt;font style=&quot;color: rgb(255, 0, 0);&quot;&gt;CC-Link-IE&lt;/font&gt;&lt;/b&gt;" style="rounded=0;whiteSpace=wrap;html=1;strokeColor=none;fillColor=none;" parent="1" vertex="1">
          <mxGeometry x="255" y="616" width="70" height="20" as="geometry" />
        </mxCell>
        <mxCell id="YWgGbhT9v-dE-4aeQCzL-29" value="&lt;b&gt;&lt;font style=&quot;&quot;&gt;Modbus TCP&lt;/font&gt;&lt;/b&gt;" style="rounded=0;whiteSpace=wrap;html=1;strokeColor=none;fillColor=none;fontColor=#006600;" parent="1" vertex="1">
          <mxGeometry x="450" y="616" width="90" height="20" as="geometry" />
        </mxCell>
        <mxCell id="YWgGbhT9v-dE-4aeQCzL-32" style="edgeStyle=orthogonalEdgeStyle;rounded=0;orthogonalLoop=1;jettySize=auto;html=1;endArrow=none;startFill=0;strokeColor=#0000CC;strokeWidth=3;" parent="1" edge="1">
          <mxGeometry relative="1" as="geometry">
            <mxPoint x="440" y="519" as="sourcePoint" />
            <mxPoint x="440" y="449" as="targetPoint" />
          </mxGeometry>
        </mxCell>
        <mxCell id="YWgGbhT9v-dE-4aeQCzL-34" value="&lt;b&gt;&lt;font style=&quot;color: rgb(0, 0, 204);&quot;&gt;OPC UA&lt;/font&gt;&lt;/b&gt;" style="rounded=0;whiteSpace=wrap;html=1;strokeColor=none;fillColor=none;" parent="1" vertex="1">
          <mxGeometry x="450" y="475" width="70" height="20" as="geometry" />
        </mxCell>
        <mxCell id="YWgGbhT9v-dE-4aeQCzL-37" value="&lt;b&gt;&lt;font style=&quot;color: rgb(0, 0, 204);&quot;&gt;OPC UA&lt;/font&gt;&lt;/b&gt;" style="rounded=0;whiteSpace=wrap;html=1;strokeColor=none;fillColor=none;" parent="1" vertex="1">
          <mxGeometry x="306" y="530" width="70" height="20" as="geometry" />
        </mxCell>
        <mxCell id="YWgGbhT9v-dE-4aeQCzL-39" value="" style="shape=image;verticalLabelPosition=bottom;labelBackgroundColor=default;verticalAlign=top;aspect=fixed;imageAspect=0;image=https://images.seeklogo.com/logo-png/35/2/opc-unified-architecture-ua-logo-png_seeklogo-355019.png;" parent="1" vertex="1">
          <mxGeometry x="390" y="511" width="100" height="100" as="geometry" />
        </mxCell>
        <mxCell id="YWgGbhT9v-dE-4aeQCzL-41" value="" style="shape=image;verticalLabelPosition=bottom;labelBackgroundColor=default;verticalAlign=top;aspect=fixed;imageAspect=0;image=https://iconics.fr/wp-content/uploads/2021/04/ICONICS_logo-1.png;" parent="1" vertex="1">
          <mxGeometry x="183.68" y="541" width="52.36" height="30" as="geometry" />
        </mxCell>
        <mxCell id="YWgGbhT9v-dE-4aeQCzL-42" value="" style="rounded=1;whiteSpace=wrap;html=1;fillColor=#CC99FF;strokeColor=none;arcSize=7;" parent="1" vertex="1">
          <mxGeometry x="330" y="369" width="220" height="91" as="geometry" />
        </mxCell>
        <mxCell id="YWgGbhT9v-dE-4aeQCzL-43" value="&lt;font color=&quot;#000000&quot;&gt;&lt;b&gt;Edge Gateway&lt;/b&gt;&lt;/font&gt;" style="rounded=0;whiteSpace=wrap;html=1;strokeColor=none;fillColor=none;" parent="1" vertex="1">
          <mxGeometry x="385" y="371" width="110" height="20" as="geometry" />
        </mxCell>
        <mxCell id="YWgGbhT9v-dE-4aeQCzL-53" value="" style="image;points=[];aspect=fixed;html=1;align=center;shadow=0;dashed=0;image=img/lib/allied_telesis/computer_and_terminals/Personal_Computer_with_Server.svg;" parent="1" vertex="1">
          <mxGeometry x="120.60000000000002" y="399" width="41.4" height="41.4" as="geometry" />
        </mxCell>
        <mxCell id="YWgGbhT9v-dE-4aeQCzL-54" value="" style="image;points=[];aspect=fixed;html=1;align=center;shadow=0;dashed=0;image=img/lib/allied_telesis/computer_and_terminals/Personal_Computer_with_Server.svg;" parent="1" vertex="1">
          <mxGeometry x="238.60000000000002" y="399" width="41.4" height="41.4" as="geometry" />
        </mxCell>
        <mxCell id="YWgGbhT9v-dE-4aeQCzL-55" value="&lt;b&gt;&lt;font style=&quot;color: rgb(0, 0, 0);&quot;&gt;Client 01&lt;/font&gt;&lt;/b&gt;" style="rounded=0;whiteSpace=wrap;html=1;strokeColor=none;fillColor=none;" parent="1" vertex="1">
          <mxGeometry x="106.30000000000001" y="374" width="70" height="20" as="geometry" />
        </mxCell>
        <mxCell id="YWgGbhT9v-dE-4aeQCzL-56" value="&lt;b&gt;&lt;font style=&quot;color: rgb(0, 0, 0);&quot;&gt;Client 02&lt;/font&gt;&lt;/b&gt;" style="rounded=0;whiteSpace=wrap;html=1;strokeColor=none;fillColor=none;" parent="1" vertex="1">
          <mxGeometry x="224.3" y="374" width="70" height="20" as="geometry" />
        </mxCell>
        <mxCell id="YWgGbhT9v-dE-4aeQCzL-57" value="" style="endArrow=none;html=1;rounded=1;exitX=0.5;exitY=0;exitDx=0;exitDy=0;strokeColor=#003300;strokeWidth=3;curved=0;" parent="1" source="YWgGbhT9v-dE-4aeQCzL-20" target="YWgGbhT9v-dE-4aeQCzL-53" edge="1">
          <mxGeometry width="50" height="50" relative="1" as="geometry">
            <mxPoint x="240" y="539" as="sourcePoint" />
            <mxPoint x="170" y="449" as="targetPoint" />
            <Array as="points">
              <mxPoint x="240" y="489" />
              <mxPoint x="142" y="489" />
            </Array>
          </mxGeometry>
        </mxCell>
        <mxCell id="YWgGbhT9v-dE-4aeQCzL-58" value="" style="endArrow=none;html=1;rounded=1;exitX=0.5;exitY=0;exitDx=0;exitDy=0;strokeColor=#003300;strokeWidth=3;curved=0;entryX=0.516;entryY=0.988;entryDx=0;entryDy=0;entryPerimeter=0;" parent="1" source="YWgGbhT9v-dE-4aeQCzL-20" target="YWgGbhT9v-dE-4aeQCzL-54" edge="1">
          <mxGeometry width="50" height="50" relative="1" as="geometry">
            <mxPoint x="250" y="530" as="sourcePoint" />
            <mxPoint x="260" y="449" as="targetPoint" />
            <Array as="points">
              <mxPoint x="240" y="489" />
              <mxPoint x="260" y="489" />
            </Array>
          </mxGeometry>
        </mxCell>
        <mxCell id="YWgGbhT9v-dE-4aeQCzL-60" value="&lt;b&gt;&lt;font color=&quot;#003300&quot;&gt;HTTPS&lt;/font&gt;&lt;/b&gt;" style="rounded=0;whiteSpace=wrap;html=1;strokeColor=none;fillColor=none;" parent="1" vertex="1">
          <mxGeometry x="166.04000000000002" y="465" width="70" height="20" as="geometry" />
        </mxCell>
        <mxCell id="YWgGbhT9v-dE-4aeQCzL-63" style="edgeStyle=orthogonalEdgeStyle;rounded=0;orthogonalLoop=1;jettySize=auto;html=1;endArrow=none;startFill=0;strokeColor=#CC0000;strokeWidth=3;entryX=0;entryY=0.5;entryDx=0;entryDy=0;exitX=1;exitY=0.5;exitDx=0;exitDy=0;fontColor=#CC6600;entryPerimeter=0;" parent="1" source="YWgGbhT9v-dE-4aeQCzL-42" target="GnrDczEZxaMrEFNFUuwD-172" edge="1">
          <mxGeometry relative="1" as="geometry">
            <mxPoint x="440.04999999999995" y="340" as="sourcePoint" />
            <mxPoint x="440" y="248" as="targetPoint" />
            <Array as="points" />
          </mxGeometry>
        </mxCell>
        <mxCell id="YWgGbhT9v-dE-4aeQCzL-64" value="&lt;b&gt;&lt;font color=&quot;#cc0000&quot; style=&quot;font-size: 13px;&quot;&gt;MQTT&lt;/font&gt;&lt;/b&gt;" style="rounded=0;whiteSpace=wrap;html=1;strokeColor=none;fillColor=none;fontColor=#FF8000;" parent="1" vertex="1">
          <mxGeometry x="604.3" y="389" width="70" height="20" as="geometry" />
        </mxCell>
        <mxCell id="qGfMKpQDj4KVWiZ2LK5q-1" value="&lt;b&gt;&lt;font color=&quot;#000000&quot; style=&quot;font-size: 15px;&quot;&gt;Industrial Control System&lt;/font&gt;&lt;/b&gt;" style="rounded=0;whiteSpace=wrap;html=1;strokeColor=none;fillColor=none;" parent="1" vertex="1">
          <mxGeometry x="92" y="327" width="190" height="20" as="geometry" />
        </mxCell>
        <mxCell id="GnrDczEZxaMrEFNFUuwD-136" value="" style="image;points=[];aspect=fixed;html=1;align=center;shadow=0;dashed=0;image=img/lib/allied_telesis/computer_and_terminals/Server_Desktop.svg;" parent="1" vertex="1">
          <mxGeometry x="344.44999999999993" y="404" width="31.55" height="40" as="geometry" />
        </mxCell>
        <mxCell id="GnrDczEZxaMrEFNFUuwD-137" value="" style="rounded=1;whiteSpace=wrap;html=1;fillColor=#E5CCFF;strokeColor=#1A1A1A;arcSize=7;" parent="1" vertex="1">
          <mxGeometry x="387" y="395" width="154" height="58" as="geometry" />
        </mxCell>
        <mxCell id="GnrDczEZxaMrEFNFUuwD-138" value="" style="shape=image;verticalLabelPosition=bottom;labelBackgroundColor=default;verticalAlign=top;aspect=fixed;imageAspect=0;image=https://static-00.iconduck.com/assets.00/c-sharp-c-icon-1822x2048-wuf3ijab.png;" parent="1" vertex="1">
          <mxGeometry x="399.95000000000005" y="405.5" width="33.37" height="37.5" as="geometry" />
        </mxCell>
        <mxCell id="GnrDczEZxaMrEFNFUuwD-139" value="" style="shape=image;verticalLabelPosition=bottom;labelBackgroundColor=default;verticalAlign=top;aspect=fixed;imageAspect=0;image=https://www.innorobix.com/wp-content/uploads/2018/01/Ignition-by-Inductive-Automation.png;" parent="1" vertex="1">
          <mxGeometry x="227.15000000000003" y="561" width="73.85" height="32" as="geometry" />
        </mxCell>
        <mxCell id="GnrDczEZxaMrEFNFUuwD-164" value="" style="shape=image;verticalLabelPosition=bottom;labelBackgroundColor=default;verticalAlign=top;aspect=fixed;imageAspect=0;image=https://cdn.iconscout.com/icon/free/png-256/free-aws-logo-icon-download-in-svg-png-gif-file-formats--cloud-computing-network-server-database-brand-pack-logos-icons-1583149.png;" parent="1" vertex="1">
          <mxGeometry x="614" y="318" width="58" height="58" as="geometry" />
        </mxCell>
        <mxCell id="GnrDczEZxaMrEFNFUuwD-168" value="&lt;b&gt;&lt;font color=&quot;#000000&quot; style=&quot;font-size: 15px;&quot;&gt;Cloud Services&lt;/font&gt;&lt;/b&gt;" style="rounded=0;whiteSpace=wrap;html=1;strokeColor=none;fillColor=none;" parent="1" vertex="1">
          <mxGeometry x="674" y="324" width="130" height="20" as="geometry" />
        </mxCell>
        <mxCell id="GnrDczEZxaMrEFNFUuwD-170" value="&lt;font color=&quot;#000000&quot;&gt;&lt;b style=&quot;&quot;&gt;IoT Core&lt;/b&gt;&lt;/font&gt;" style="rounded=0;whiteSpace=wrap;html=1;strokeColor=none;fillColor=none;" parent="1" vertex="1">
          <mxGeometry x="657.3" y="453" width="77.5" height="20" as="geometry" />
        </mxCell>
        <mxCell id="GnrDczEZxaMrEFNFUuwD-172" value="" style="sketch=0;points=[[0,0,0],[0.25,0,0],[0.5,0,0],[0.75,0,0],[1,0,0],[0,1,0],[0.25,1,0],[0.5,1,0],[0.75,1,0],[1,1,0],[0,0.25,0],[0,0.5,0],[0,0.75,0],[1,0.25,0],[1,0.5,0],[1,0.75,0]];outlineConnect=0;fontColor=#232F3E;fillColor=#7AA116;strokeColor=#ffffff;dashed=0;verticalLabelPosition=bottom;verticalAlign=top;align=center;html=1;fontSize=12;fontStyle=0;aspect=fixed;shape=mxgraph.aws4.resourceIcon;resIcon=mxgraph.aws4.internet_of_things;" parent="1" vertex="1">
          <mxGeometry x="674.15" y="389" width="50" height="50" as="geometry" />
        </mxCell>
        <mxCell id="GnrDczEZxaMrEFNFUuwD-173" value="" style="shape=image;verticalLabelPosition=bottom;labelBackgroundColor=default;verticalAlign=top;aspect=fixed;imageAspect=0;image=https://upload.wikimedia.org/wikipedia/commons/thumb/5/5c/Amazon_Lambda_architecture_logo.svg/1920px-Amazon_Lambda_architecture_logo.svg.png;" parent="1" vertex="1">
          <mxGeometry x="811.5" y="693.75" width="48" height="48" as="geometry" />
        </mxCell>
        <mxCell id="GnrDczEZxaMrEFNFUuwD-180" value="&lt;font color=&quot;#000000&quot;&gt;&lt;b style=&quot;&quot;&gt;Lambda Functions&lt;/b&gt;&lt;/font&gt;" style="rounded=0;whiteSpace=wrap;html=1;strokeColor=none;fillColor=none;" parent="1" vertex="1">
          <mxGeometry x="800.5" y="752.25" width="70" height="20" as="geometry" />
        </mxCell>
        <mxCell id="GnrDczEZxaMrEFNFUuwD-181" value="&lt;font color=&quot;#000000&quot;&gt;&lt;b&gt;DynamoDB&lt;/b&gt;&lt;/font&gt;" style="rounded=0;whiteSpace=wrap;html=1;strokeColor=none;fillColor=none;" parent="1" vertex="1">
          <mxGeometry x="913.5000000000001" y="698.25" width="70" height="20" as="geometry" />
        </mxCell>
        <mxCell id="GnrDczEZxaMrEFNFUuwD-182" value="&lt;font color=&quot;#000000&quot;&gt;&lt;b&gt;S3&lt;/b&gt;&lt;/font&gt;" style="rounded=0;whiteSpace=wrap;html=1;strokeColor=none;fillColor=none;" parent="1" vertex="1">
          <mxGeometry x="911.4999999999998" y="791" width="70" height="20" as="geometry" />
        </mxCell>
        <mxCell id="vcLE8csJAE1lBY_zovCR-69" style="edgeStyle=orthogonalEdgeStyle;rounded=0;orthogonalLoop=1;jettySize=auto;html=1;exitX=1;exitY=0.5;exitDx=0;exitDy=0;entryX=0;entryY=0.5;entryDx=0;entryDy=0;endArrow=none;endFill=0;strokeWidth=3;strokeColor=#CC00CC;" edge="1" parent="1" source="GnrDczEZxaMrEFNFUuwD-185" target="GnrDczEZxaMrEFNFUuwD-188">
          <mxGeometry relative="1" as="geometry" />
        </mxCell>
        <mxCell id="GnrDczEZxaMrEFNFUuwD-185" value="" style="shape=image;verticalLabelPosition=bottom;labelBackgroundColor=default;verticalAlign=top;aspect=fixed;imageAspect=0;image=https://upload.wikimedia.org/wikipedia/commons/thumb/5/5c/Amazon_Lambda_architecture_logo.svg/1920px-Amazon_Lambda_architecture_logo.svg.png;" parent="1" vertex="1">
          <mxGeometry x="810" y="389" width="51" height="51" as="geometry" />
        </mxCell>
        <mxCell id="GnrDczEZxaMrEFNFUuwD-186" value="&lt;font color=&quot;#000000&quot;&gt;&lt;b style=&quot;&quot;&gt;Lambda Functions&lt;/b&gt;&lt;/font&gt;" style="rounded=0;whiteSpace=wrap;html=1;strokeColor=none;fillColor=none;" parent="1" vertex="1">
          <mxGeometry x="800.5" y="445" width="70" height="20" as="geometry" />
        </mxCell>
        <mxCell id="GnrDczEZxaMrEFNFUuwD-188" value="" style="shape=image;verticalLabelPosition=bottom;labelBackgroundColor=default;verticalAlign=top;aspect=fixed;imageAspect=0;image=https://miro.medium.com/v2/resize:fit:400/1*McUzTv2tJ0TngT6Yec_ExA.png;" parent="1" vertex="1">
          <mxGeometry x="921" y="389" width="51" height="51" as="geometry" />
        </mxCell>
        <mxCell id="GnrDczEZxaMrEFNFUuwD-189" value="&lt;font color=&quot;#000000&quot;&gt;&lt;b style=&quot;&quot;&gt;API Gateway&lt;/b&gt;&lt;/font&gt;" style="rounded=0;whiteSpace=wrap;html=1;strokeColor=none;fillColor=none;" parent="1" vertex="1">
          <mxGeometry x="900.13" y="445" width="92.75" height="20" as="geometry" />
        </mxCell>
        <mxCell id="GnrDczEZxaMrEFNFUuwD-192" value="&lt;b style=&quot;color: rgb(0, 0, 0);&quot;&gt;&lt;font style=&quot;font-size: 10px;&quot;&gt;OPC UA&lt;/font&gt;&lt;/b&gt;" style="rounded=1;whiteSpace=wrap;html=1;fillColor=#CC99FF;strokeColor=#1A1A1A;arcSize=7;" parent="1" vertex="1">
          <mxGeometry x="449.75" y="404" width="84.25" height="16" as="geometry" />
        </mxCell>
        <mxCell id="GnrDczEZxaMrEFNFUuwD-193" value="&lt;b style=&quot;color: rgb(0, 0, 0);&quot;&gt;&lt;font style=&quot;font-size: 10px;&quot;&gt;Boto3&lt;/font&gt;&lt;/b&gt;" style="rounded=1;whiteSpace=wrap;html=1;fillColor=#CC99FF;strokeColor=#1A1A1A;arcSize=7;" parent="1" vertex="1">
          <mxGeometry x="449.88" y="428.25" width="84.25" height="16" as="geometry" />
        </mxCell>
        <mxCell id="vcLE8csJAE1lBY_zovCR-11" value="" style="group" vertex="1" connectable="0" parent="1">
          <mxGeometry x="270" y="660" width="90.00000000000001" height="64.5" as="geometry" />
        </mxCell>
        <mxCell id="vcLE8csJAE1lBY_zovCR-12" value="" style="rounded=1;whiteSpace=wrap;html=1;fillColor=#FF6666;strokeColor=#1A1A1A;arcSize=10;strokeWidth=2;" vertex="1" parent="vcLE8csJAE1lBY_zovCR-11">
          <mxGeometry y="6" width="90" height="56.5" as="geometry" />
        </mxCell>
        <mxCell id="vcLE8csJAE1lBY_zovCR-13" value="" style="shape=image;verticalLabelPosition=bottom;labelBackgroundColor=default;verticalAlign=top;aspect=fixed;imageAspect=0;image=https://static.thenounproject.com/png/72238-200.png;" vertex="1" parent="vcLE8csJAE1lBY_zovCR-11">
          <mxGeometry x="17.33" width="56" height="56" as="geometry" />
        </mxCell>
        <mxCell id="vcLE8csJAE1lBY_zovCR-14" value="&lt;b&gt;&lt;font style=&quot;color: rgb(0, 0, 0);&quot;&gt;PLC 02&lt;/font&gt;&lt;/b&gt;" style="rounded=0;whiteSpace=wrap;html=1;strokeColor=none;fillColor=none;" vertex="1" parent="vcLE8csJAE1lBY_zovCR-11">
          <mxGeometry x="11.329999999999998" y="39.5" width="70" height="20" as="geometry" />
        </mxCell>
        <mxCell id="vcLE8csJAE1lBY_zovCR-27" value="" style="group" vertex="1" connectable="0" parent="1">
          <mxGeometry x="460" y="718" width="70" height="95" as="geometry" />
        </mxCell>
        <mxCell id="vcLE8csJAE1lBY_zovCR-28" value="" style="endArrow=none;html=1;rounded=0;exitX=0.5;exitY=0;exitDx=0;exitDy=0;strokeWidth=3;strokeColor=#000000;" edge="1" parent="vcLE8csJAE1lBY_zovCR-27" source="vcLE8csJAE1lBY_zovCR-31">
          <mxGeometry width="50" height="50" relative="1" as="geometry">
            <mxPoint x="158" y="83" as="sourcePoint" />
            <mxPoint x="34" as="targetPoint" />
          </mxGeometry>
        </mxCell>
        <mxCell id="vcLE8csJAE1lBY_zovCR-29" value="" style="group" vertex="1" connectable="0" parent="vcLE8csJAE1lBY_zovCR-27">
          <mxGeometry x="11.699999999999989" y="36" width="45.7" height="35" as="geometry" />
        </mxCell>
        <mxCell id="vcLE8csJAE1lBY_zovCR-30" value="" style="rounded=0;whiteSpace=wrap;html=1;fontColor=#CCCCCC;fillColor=#CCCCCC;strokeColor=#000000;" vertex="1" parent="vcLE8csJAE1lBY_zovCR-29">
          <mxGeometry x="3.237397034596385" y="6.3" width="40.95683690280067" height="22.4" as="geometry" />
        </mxCell>
        <mxCell id="vcLE8csJAE1lBY_zovCR-31" value="" style="ellipse;whiteSpace=wrap;html=1;aspect=fixed;fontColor=#CCCCCC;fillColor=#0066CC;strokeColor=#000000;" vertex="1" parent="vcLE8csJAE1lBY_zovCR-29">
          <mxGeometry x="8.055848434925858" y="3.5" width="28" height="28" as="geometry" />
        </mxCell>
        <mxCell id="vcLE8csJAE1lBY_zovCR-32" value="" style="rounded=1;whiteSpace=wrap;html=1;fontColor=#CCCCCC;fillColor=#CCCCCC;strokeColor=#000000;" vertex="1" parent="vcLE8csJAE1lBY_zovCR-29">
          <mxGeometry width="7.528830313014829" height="35" as="geometry" />
        </mxCell>
        <mxCell id="vcLE8csJAE1lBY_zovCR-33" value="" style="rounded=1;whiteSpace=wrap;html=1;fontColor=#CCCCCC;fillColor=#CCCCCC;strokeColor=#000000;" vertex="1" parent="vcLE8csJAE1lBY_zovCR-29">
          <mxGeometry x="38.17116968698517" width="7.528830313014829" height="35" as="geometry" />
        </mxCell>
        <mxCell id="vcLE8csJAE1lBY_zovCR-34" value="" style="ellipse;whiteSpace=wrap;html=1;aspect=fixed;fontColor=#CCCCCC;fillColor=#FFFFFF;strokeColor=#000000;" vertex="1" parent="vcLE8csJAE1lBY_zovCR-29">
          <mxGeometry x="11.820263591433273" y="7" width="21" height="21" as="geometry" />
        </mxCell>
        <mxCell id="vcLE8csJAE1lBY_zovCR-35" value="" style="rounded=0;whiteSpace=wrap;html=1;fillColor=#4D4D4D;strokeColor=#000000;" vertex="1" parent="vcLE8csJAE1lBY_zovCR-29">
          <mxGeometry x="15.579999999999998" y="12.6" width="13.42" height="7.4" as="geometry" />
        </mxCell>
        <mxCell id="vcLE8csJAE1lBY_zovCR-36" value="&lt;b&gt;&lt;font style=&quot;color: rgb(0, 0, 0);&quot;&gt;Sensor 03&lt;/font&gt;&lt;/b&gt;" style="rounded=0;whiteSpace=wrap;html=1;strokeColor=none;fillColor=none;" vertex="1" parent="vcLE8csJAE1lBY_zovCR-27">
          <mxGeometry y="73" width="70" height="20" as="geometry" />
        </mxCell>
        <mxCell id="vcLE8csJAE1lBY_zovCR-37" value="" style="group" vertex="1" connectable="0" parent="1">
          <mxGeometry x="450" y="660" width="90.00000000000001" height="64.5" as="geometry" />
        </mxCell>
        <mxCell id="vcLE8csJAE1lBY_zovCR-38" value="" style="rounded=1;whiteSpace=wrap;html=1;fillColor=#00FF00;strokeColor=#1A1A1A;arcSize=10;strokeWidth=2;" vertex="1" parent="vcLE8csJAE1lBY_zovCR-37">
          <mxGeometry y="6" width="90" height="56.5" as="geometry" />
        </mxCell>
        <mxCell id="vcLE8csJAE1lBY_zovCR-39" value="" style="shape=image;verticalLabelPosition=bottom;labelBackgroundColor=default;verticalAlign=top;aspect=fixed;imageAspect=0;image=https://static.thenounproject.com/png/72238-200.png;" vertex="1" parent="vcLE8csJAE1lBY_zovCR-37">
          <mxGeometry x="17.33" width="56" height="56" as="geometry" />
        </mxCell>
        <mxCell id="vcLE8csJAE1lBY_zovCR-40" value="&lt;b&gt;&lt;font style=&quot;color: rgb(0, 0, 0);&quot;&gt;PLC 03&lt;/font&gt;&lt;/b&gt;" style="rounded=0;whiteSpace=wrap;html=1;strokeColor=none;fillColor=none;" vertex="1" parent="vcLE8csJAE1lBY_zovCR-37">
          <mxGeometry x="11.329999999999998" y="39.5" width="70" height="20" as="geometry" />
        </mxCell>
        <mxCell id="vcLE8csJAE1lBY_zovCR-42" value="" style="endArrow=none;html=1;rounded=1;exitX=0;exitY=0.5;exitDx=0;exitDy=0;curved=0;strokeWidth=3;strokeColor=#CC6600;entryX=1;entryY=0.5;entryDx=0;entryDy=0;entryPerimeter=0;" edge="1" parent="1" source="GnrDczEZxaMrEFNFUuwD-173" target="GnrDczEZxaMrEFNFUuwD-172">
          <mxGeometry width="50" height="50" relative="1" as="geometry">
            <mxPoint x="744" y="566" as="sourcePoint" />
            <mxPoint x="699" y="439" as="targetPoint" />
            <Array as="points">
              <mxPoint x="747" y="718" />
              <mxPoint x="749" y="414" />
            </Array>
          </mxGeometry>
        </mxCell>
        <mxCell id="vcLE8csJAE1lBY_zovCR-43" value="" style="shape=image;verticalLabelPosition=bottom;labelBackgroundColor=default;verticalAlign=top;aspect=fixed;imageAspect=0;image=https://upload.wikimedia.org/wikipedia/commons/thumb/5/5c/Amazon_Lambda_architecture_logo.svg/1920px-Amazon_Lambda_architecture_logo.svg.png;" vertex="1" parent="1">
          <mxGeometry x="811.5" y="525.5" width="48" height="48" as="geometry" />
        </mxCell>
        <mxCell id="vcLE8csJAE1lBY_zovCR-44" value="&lt;font color=&quot;#000000&quot;&gt;&lt;b style=&quot;&quot;&gt;Lambda Functions&lt;/b&gt;&lt;/font&gt;" style="rounded=0;whiteSpace=wrap;html=1;strokeColor=none;fillColor=none;" vertex="1" parent="1">
          <mxGeometry x="800.5" y="582" width="70" height="20" as="geometry" />
        </mxCell>
        <mxCell id="vcLE8csJAE1lBY_zovCR-47" value="" style="sketch=0;points=[[0,0,0],[0.25,0,0],[0.5,0,0],[0.75,0,0],[1,0,0],[0,1,0],[0.25,1,0],[0.5,1,0],[0.75,1,0],[1,1,0],[0,0.25,0],[0,0.5,0],[0,0.75,0],[1,0.25,0],[1,0.5,0],[1,0.75,0]];outlineConnect=0;fontColor=#232F3E;fillColor=#01A88D;strokeColor=#ffffff;dashed=0;verticalLabelPosition=bottom;verticalAlign=top;align=center;html=1;fontSize=12;fontStyle=0;aspect=fixed;shape=mxgraph.aws4.resourceIcon;resIcon=mxgraph.aws4.sagemaker;" vertex="1" parent="1">
          <mxGeometry x="926.13" y="525.5" width="47.5" height="47.5" as="geometry" />
        </mxCell>
        <mxCell id="vcLE8csJAE1lBY_zovCR-48" value="&lt;font color=&quot;#000000&quot;&gt;&lt;b style=&quot;&quot;&gt;Sagemaker&lt;/b&gt;&lt;/font&gt;" style="rounded=0;whiteSpace=wrap;html=1;strokeColor=none;fillColor=none;" vertex="1" parent="1">
          <mxGeometry x="914.88" y="581.5" width="70" height="20" as="geometry" />
        </mxCell>
        <mxCell id="vcLE8csJAE1lBY_zovCR-49" value="" style="endArrow=none;html=1;rounded=1;exitX=0;exitY=0.5;exitDx=0;exitDy=0;curved=0;strokeWidth=3;strokeColor=#CC6600;entryX=1;entryY=0.5;entryDx=0;entryDy=0;entryPerimeter=0;" edge="1" parent="1" source="vcLE8csJAE1lBY_zovCR-43" target="GnrDczEZxaMrEFNFUuwD-172">
          <mxGeometry width="50" height="50" relative="1" as="geometry">
            <mxPoint x="822" y="764" as="sourcePoint" />
            <mxPoint x="734" y="424" as="targetPoint" />
            <Array as="points">
              <mxPoint x="748" y="550" />
              <mxPoint x="749" y="415" />
            </Array>
          </mxGeometry>
        </mxCell>
        <mxCell id="vcLE8csJAE1lBY_zovCR-50" style="edgeStyle=orthogonalEdgeStyle;rounded=0;orthogonalLoop=1;jettySize=auto;html=1;endArrow=none;startFill=0;strokeColor=#6600CC;strokeWidth=3;entryX=1;entryY=0.5;entryDx=0;entryDy=0;exitX=0;exitY=0.5;exitDx=0;exitDy=0;exitPerimeter=0;" edge="1" parent="1" source="vcLE8csJAE1lBY_zovCR-47" target="vcLE8csJAE1lBY_zovCR-43">
          <mxGeometry relative="1" as="geometry">
            <mxPoint x="972" y="603" as="sourcePoint" />
            <mxPoint x="972" y="533" as="targetPoint" />
          </mxGeometry>
        </mxCell>
        <mxCell id="vcLE8csJAE1lBY_zovCR-54" value="&lt;b style=&quot;&quot;&gt;Real-Time Setpoint Optimization&lt;/b&gt;" style="rounded=1;whiteSpace=wrap;html=1;fillColor=#4C0099;strokeColor=none;arcSize=29;fontColor=#FFFFFF;" vertex="1" parent="1">
          <mxGeometry x="784.88" y="492" width="200" height="20" as="geometry" />
        </mxCell>
        <mxCell id="vcLE8csJAE1lBY_zovCR-57" style="edgeStyle=orthogonalEdgeStyle;rounded=1;orthogonalLoop=1;jettySize=auto;html=1;endArrow=none;startFill=0;strokeColor=#6600CC;strokeWidth=3;entryX=1;entryY=0.5;entryDx=0;entryDy=0;exitX=1;exitY=0.5;exitDx=0;exitDy=0;entryPerimeter=0;curved=0;exitPerimeter=0;" edge="1" parent="1" source="vcLE8csJAE1lBY_zovCR-78" target="vcLE8csJAE1lBY_zovCR-47">
          <mxGeometry relative="1" as="geometry">
            <mxPoint x="972.5" y="672.75" as="sourcePoint" />
            <mxPoint x="1009" y="560" as="targetPoint" />
            <Array as="points">
              <mxPoint x="1050" y="673" />
              <mxPoint x="1050" y="549" />
            </Array>
          </mxGeometry>
        </mxCell>
        <mxCell id="vcLE8csJAE1lBY_zovCR-59" style="edgeStyle=orthogonalEdgeStyle;rounded=1;orthogonalLoop=1;jettySize=auto;html=1;endArrow=none;startFill=0;strokeColor=#000066;strokeWidth=3;exitX=0;exitY=0.5;exitDx=0;exitDy=0;curved=0;" edge="1" parent="1">
          <mxGeometry relative="1" as="geometry">
            <mxPoint x="922.5" y="672.75" as="sourcePoint" />
            <mxPoint x="859" y="719" as="targetPoint" />
            <Array as="points">
              <mxPoint x="893" y="673" />
              <mxPoint x="893" y="719" />
            </Array>
          </mxGeometry>
        </mxCell>
        <mxCell id="vcLE8csJAE1lBY_zovCR-60" style="edgeStyle=orthogonalEdgeStyle;rounded=1;orthogonalLoop=1;jettySize=auto;html=1;endArrow=none;startFill=0;strokeColor=#000066;strokeWidth=3;exitX=0;exitY=0.5;exitDx=0;exitDy=0;entryX=1;entryY=0.5;entryDx=0;entryDy=0;curved=0;" edge="1" parent="1" target="GnrDczEZxaMrEFNFUuwD-173">
          <mxGeometry relative="1" as="geometry">
            <mxPoint x="923.5" y="767" as="sourcePoint" />
            <mxPoint x="869" y="729" as="targetPoint" />
            <Array as="points">
              <mxPoint x="924" y="767" />
              <mxPoint x="893" y="767" />
              <mxPoint x="893" y="719" />
              <mxPoint x="860" y="719" />
            </Array>
          </mxGeometry>
        </mxCell>
        <mxCell id="vcLE8csJAE1lBY_zovCR-61" value="" style="sketch=0;pointerEvents=1;shadow=0;dashed=0;html=1;strokeColor=none;fillColor=#1A1A1A;labelPosition=center;verticalLabelPosition=bottom;verticalAlign=top;outlineConnect=0;align=center;shape=mxgraph.office.users.tenant_admin;" vertex="1" parent="1">
          <mxGeometry x="1029" y="392" width="44" height="44" as="geometry" />
        </mxCell>
        <mxCell id="vcLE8csJAE1lBY_zovCR-62" value="&lt;font color=&quot;#000000&quot;&gt;&lt;b style=&quot;&quot;&gt;Admin&lt;/b&gt;&lt;/font&gt;" style="rounded=0;whiteSpace=wrap;html=1;strokeColor=none;fillColor=none;" vertex="1" parent="1">
          <mxGeometry x="1003.9999999999999" y="439" width="92.75" height="20" as="geometry" />
        </mxCell>
        <mxCell id="vcLE8csJAE1lBY_zovCR-65" style="edgeStyle=orthogonalEdgeStyle;rounded=0;orthogonalLoop=1;jettySize=auto;html=1;endArrow=none;startFill=0;strokeColor=#CC6600;strokeWidth=3;entryX=0;entryY=0.5;entryDx=0;entryDy=0;exitX=1;exitY=0.5;exitDx=0;exitDy=0;fontColor=#CC6600;exitPerimeter=0;" edge="1" parent="1" source="GnrDczEZxaMrEFNFUuwD-172" target="GnrDczEZxaMrEFNFUuwD-185">
          <mxGeometry relative="1" as="geometry">
            <mxPoint x="765" y="410" as="sourcePoint" />
            <mxPoint x="889" y="409" as="targetPoint" />
            <Array as="points" />
          </mxGeometry>
        </mxCell>
        <mxCell id="vcLE8csJAE1lBY_zovCR-66" value="&lt;b style=&quot;&quot;&gt;User Controls&lt;/b&gt;" style="rounded=1;whiteSpace=wrap;html=1;fillColor=#990099;strokeColor=none;arcSize=29;fontColor=#FFFFFF;" vertex="1" parent="1">
          <mxGeometry x="784.88" y="359" width="105.12" height="20" as="geometry" />
        </mxCell>
        <mxCell id="vcLE8csJAE1lBY_zovCR-70" style="edgeStyle=orthogonalEdgeStyle;rounded=0;orthogonalLoop=1;jettySize=auto;html=1;exitX=1;exitY=0.5;exitDx=0;exitDy=0;endArrow=none;endFill=0;strokeWidth=3;strokeColor=#CC00CC;" edge="1" parent="1" target="vcLE8csJAE1lBY_zovCR-61">
          <mxGeometry relative="1" as="geometry">
            <mxPoint x="971.5" y="413.83" as="sourcePoint" />
            <mxPoint x="1031.5" y="413.83" as="targetPoint" />
            <Array as="points">
              <mxPoint x="1002" y="413" />
              <mxPoint x="1002" y="413" />
            </Array>
          </mxGeometry>
        </mxCell>
        <mxCell id="vcLE8csJAE1lBY_zovCR-72" value="" style="endArrow=none;html=1;rounded=1;strokeWidth=3;strokeColor=#FF0000;curved=0;" edge="1" parent="1">
          <mxGeometry width="50" height="50" relative="1" as="geometry">
            <mxPoint x="143" y="666" as="sourcePoint" />
            <mxPoint x="440" y="599" as="targetPoint" />
            <Array as="points">
              <mxPoint x="143" y="639" />
              <mxPoint x="440" y="639" />
            </Array>
          </mxGeometry>
        </mxCell>
        <mxCell id="GnrDczEZxaMrEFNFUuwD-114" value="&lt;b&gt;&lt;font style=&quot;color: rgb(0, 0, 0);&quot;&gt;Motor 01&lt;/font&gt;&lt;/b&gt;" style="rounded=0;whiteSpace=wrap;html=1;strokeColor=none;fillColor=none;" parent="1" vertex="1">
          <mxGeometry x="113.7" y="815" width="70" height="20" as="geometry" />
        </mxCell>
        <mxCell id="GnrDczEZxaMrEFNFUuwD-135" value="" style="endArrow=none;html=1;rounded=0;strokeWidth=3;strokeColor=#000000;" parent="1" edge="1">
          <mxGeometry width="50" height="50" relative="1" as="geometry">
            <mxPoint x="144.7" y="752" as="sourcePoint" />
            <mxPoint x="144.7" y="723" as="targetPoint" />
          </mxGeometry>
        </mxCell>
        <mxCell id="GnrDczEZxaMrEFNFUuwD-104" value="" style="shape=image;verticalLabelPosition=bottom;labelBackgroundColor=default;verticalAlign=top;aspect=fixed;imageAspect=0;image=data:image/png,iVBORw0KGgoAAAANSUhEUgAAANkAAAFNCAYAAACNPsqXAAAAAXNSR0IArs4c6QAAAARnQU1BAACxjwv8YQUAAAAJcEhZcwAAFxEAABcRAcom8z8AAHCqSURBVHhe7b0JeFblmf+vra3a1e7LtFatW7XaTVvtaKtFqYoSCJEtLIFsJCFEtiwQiIQtC4QkQPYQNoGwhAQQRVS0Wls7bcdpO12cdux0mWk7nZlfO/1Ptxmf//U5yRcfnpz3zR7Cm+e+rvt6t/Oe9f6ce3mWc955Xrx48eLFixcvXrx48eLFixcvXrx48eLFixcvXrx48eLFixcvXrx48eLFixcvXrx48eJlcOX48eMXlpSUvL20tPSDmzdvvrqhoeGWioqKcWVlZXG8dukDmzZt+jK/1dTUfKqkpOTSnJycS1paWi4yxpzvrtOLl1Ephw4dem9TU9NNBQUFCampqQuzs7Orli5d2j5//vy/S0lJ+UlSUtKvZ82a9Yfk5OS/pqSkGDQ5OTl4TU1N1ee/zpkz589JSUn/lZKS8kpWVta3lyxZ8sSSJUsa09PTCxYsWDCnurr6roMHD16xf//+N7r74MVLzIgx5qKKiopPp6enJy5evLgyPT39uaSkpF+mpqb+T1pamkHnzp1r5syZEyjv0aSkJDN79uxAZ82aZWbOnGlmzJgRvPKZ77U8AKJ6n56ebjIyMsy8efP+Ly0t7T9TU1O/u2TJkp3Z2dkZFRUVt3/ve997p7ufXrycU3L8+PH3LFiwYGJ2dnbdnDlzvpuWlvbfeCAUMGxweA8Y+h0FPECZN2+eyczMDFV+Q1nO/i9ejm2wbhRYgU/rysrK+ktaWtpPs7OzD+bn58/ZuXPn5e7+e/EyIuXYsWPvyM3NjQes5OTkHyu0w+ABSt4Hg+e3aAB1wdArdf9nK96MbclTAhyvQK1l5s+f/28PPfTQ/qKioqSmpqYPusflxctZlzVr1nx64cKFD6empn4f48ULYcx2SIehY/CoC4ILFJ8BEEBZn8JIVwUrnqwLlkAjwafts38CDmUd/C87Oxv96aJFizavWbNm3De/+c03ucfqxcuwiTHmjUuXLh2flpZ2fPbs2YRfgdEDFXkTr8qLbCO3vEfwyv+ACWOfNm2aiY+PN+PHjzf333+/ue+++8yXv/xlc/fddwd61113mTFjxpxWPvM9y9x7773BfyZNmhRsn31h3WwTeASduz/so0JL/sN3Dz30kID8Zm5ubvKuXbve5h6/Fy9DKjk5OVO6ihen8x8MG8+looPrPTBywMJDYcxTp041EydODIACpnvuuaebAg7K73qv3wQfoH3pS18yd9xxh/niF79ovvCFL5jbb789eA+I/GfChAnBvrFteTp33/iNY+HmwHHxecGCBfKK31u4cGE6zQvuufDiZVAlNzf382lpae0YocI4jNL2Arbx8h4j5b3AiouLOwMevM8DDzwQfA8M8mICShABjQ0Rr4B15513nuHVBB7fs/zf/u3fmltvvdV8/vOfD9Yj4NgnAWfvLwpsumHwGdh4nTdv3vMLFy68zz0vXrwMWGgYnjdvXsOsWbP+rPJ6b+AiDExMTAwMG6AEFR6MsBCw+A4gAOGTn/ykueqqq8zf/M3fmHe/+93mbW97m3nTm95kLrzwQvOGN7zhDH3jG99oLrroIvOWt7zFvOMd7zDvfe97zQc/+EFzxRVXmI997GPBuj73uc8FkMmzAdpnP/tZc8sttwTbJLQEpDDYeOU3YOM4CDmBrSsEfmTt2rXXuefJi5d+SX5+/v1JSUk/VHWOV5XdVR104cIQJ0+ebMaNGxdAhHeywcLTfOYznzGXXnqpeetb3xoAc/755xtSvYEoQAIakAEYIOENb775ZvOJT3ziNHC88jv7ANx4UrwXILnHw6va64AxJycneE1LS/vtkiVLstzz5cVLr4XuSZmZmcuSkpL+bFfiAExhlIwRlSeYPn366TwLoPAWAIbBX3/99YHHwTO5gPRX8WJ4LXI0wlFuAmorUy8RPBjeD6A//OEPmxtuuCGAS7Dxfz6z39wggMg+NjuE5MZCYYRlWJbmipqamne458+Ll6hCNS0rK6vZbldSeEjFzg2t+MwyCguBKyEhIXj/qU99yrz//e8PjNwFZCD6vve9LwgBKbioQqk8UTcEFWQID21Pyfu3v/3t5rLLLgv2D8BuuummwNvh6fiPqp/2cQIYoLG9hQsXBuFj128vFhYWfso9j168hEp+fv7Vc+fO/SoewQUsUnhI6R2gCLvwXORdGC85lQvHQPX1r3+9+fSnP326iUD7GaZAh3cjT3PXIyVUJWzFm5Gvsd8ox6Djs4+XV+VpixcvPg1acnLyb3Jycr7gnk8vXs6QrKysm2bOnPlPNmCoqnEuYOiDDz4YVAIJCVEAuOSSS7oZ82Dom9/85iAs7Akue98JAQkT3XW5ShGFggv7L682duzY4Fht0KSCfOnSpUGe1tV4/h+5ubnj3PPqxUsgOTk5n5wxY8YrKnCoyEHoFObBeAUwiht4L4wfj+Aa72Ap4SZFDPbFDgkjqW4OlPrxfu76Iinel9yRYgkejSKNGyKjCh0JK3Nzc4OiSRf8/7VkyZKx7vn1Mspl+fLllycmJv4UqAixMFJVETGwsCKHci4qhtz58TKuwQ6mUqDAiF2YIqnyMTySu66eFCg/9KEPBaDh2Wh7s28ues/+cI4ohOTl5QXAEUbOnTv3Nw899NBN7nn2Mkrl1KlTF82YMeMrGKWGisgL8N4FDEMiB8ODER5y13eNdLCVCqIah12YIin7PmXKlAF51/e85z0BaNxEKObgrexzwbnROcObLVmy5HTPkeTk5H88fPjwJe759jIKJSUlpZD8QiVvhYnKw1wPhlEBGEZ3zTXXdDPMoVDavdSb34UpTLUc+zlQD/uud73rdHsaDeth5X3OHwAWFBQEXq3LmxEFNBtjXueecy+jSJYuXTpm+vTpf9KwE92VMVC+c70Yn8m/CBOvvPLKbgY5VEpepZ79vVHdJABjMBq56X2CR6OtT/0y7XOiDs6EjPn5+cHNSBHBggULkt3z7mWUSHt7+1unTZv2be7CGIsKCoCmcr3rxTAkAKPPIAWCwTDgnpSqH/lfX0JFjoOQdjBD2Y985CNBozZNAmHeDKjxYsuXLw/a0LgpcG5nzZr1s6Kiog+559/LKJBZs2Ytw2C4C3d1EzqjLO56MSCjmkhZm2IH3aZ4TwWOhuELLrigm2EOhtJNSl7BhSmSsiz7yH/d9fVXKYYQtnKTUfOFDZnGy61YsSLIzxRGsj/z5s0rd8+/lxiXoqKiSydOnPjv6tlAPoGRYMwYBq9uyRqjobGZUr3Gi9llfvIfKnF0W6IPoWuk/dUbb7zx9CDLMA0DjH2j3H/xxRd3W99AlF4iCl1dyDT1AZ5s2bJlwTlV2Dpjxoz/KCsr+6h7HbzEsMydO3cJd3pCMEIcDEL5GAYaZkRAiOciJ+synNNqz6PBb3g8ujxdffXVQeGgL+1UrpIHsW6KDlJNqGPDbkPG71QE3XUNhhKCsh23J4giAYofeDNCRqBjXzgn6enpJe518BKjwsDD+Pj4F8lzyLsWLVp0+q6rvMf2YAoVMRS8g23gYaoe+vI05EZ0UcLoP/CBD/SpDyPhHjcD1st6CG95pROyQjG+AzyBxutAS/fRlA7OigDc88T2CRWLioqCLlcUSThvnJPExMR/efzxx/0MWaNBUlNTv3j//ff/HzkVhiLI7MqiazxAhqEAS0+QuYqRycvxX0JOqn5UJwm/XCNGKXawjGBVz3+8BYarpgaN8+J3YNN22M+h6trFvgGx22bmQqY2M3l9XhcuXDjRvR5eYlBmz579MEaIodC5FWPgFSNGMeywyiJGQqjYV8hsVVgpL8c+0G2Jzrl4OQ3EpLigCp0qneyDCg5SfsOo8Rp4M7wc31H9HKpCDKEv3lUdg6WqzlLCf/jhh09DxvnUsaelpbW418NLDMqECROOUKTgzk/HVhsyeTI8hFtdxIPwHxecgSjgCjiMUc0DAIWHlffjlf2xQVOhRtU83rN/3AiA1oVjsJRiCvtth4t24aOwsDAiZImJiT8oKiq6yL0mXmJIXn311Qvvvffe72LMticDNvWoUIjmQoaSC7mgDJayXQCh1zzbB+qudqbAQHlFlYsBGftOAzD7yn9YD16G3vQuHIOlrFug25CxP+wzoeLKlSvPyMl0jFOmTPldTU3NFe518RJDUl9ff+24ceP+izI8hQ88A8YAZOp8qxzIBUx5GXAOJGQMU62P/SJ8pE8kFUq2hXcCbsJBllHehZdQLxW+E4DkfOR6jL5GCUEptrzuda/rBkwkpZGdcBOvRW5HKMuYNOYfYR/dfEyQc9NatWpVUManaku4axU+0P+tqqr6vHtdvMSQTJ48+T6MhFI8hoz3IvfRPIMYisrw/OYaEt9h/DL4wVKMkHyKUBFl/whpNTcIHo5CDdABnJ3bCTDWwyuQMX6M3AnAAI08j7Y7vgfAd77znUGVEK90+eWXB30waY+jpz/b1/g4tsd6gVeha1jzhjwW+VhxcXHwSjjJDcCGjHUVFRVNcK+LlxiScePGTdW0aRgjBsDdF0+mzr/KkTBet0FaBRC8ix0GDVTlIW+77bZAmboN0DRhqWAT4IRmakSXt1AbGnDSPkd7Fs0GrE/Hi/dWyV+gsi5VLVFuJOosrTxVNx4Ad8NoPrMevCq5mCqL/Mb3bMeGLC0tLc29Ll5iSOLi4mZicMxTqLwMw8JY1bXKLreH3bUxJrwKBq88SXdrF57eKv/FgJmLgykAmGdDoGlaA+YPARKWVfseXpj9Zx3Awz4RbrJ/LKNihA2NDY59Q+lJ8bSRCkL8Tm6IF6O3h3riK6dk/xTyJiYmZrvXxUsMyb333psCYDJgDBdDUCKPwajCGCk3U5KviUM1MhoDsgsVLkiRVHd5wKADLoMsCdvovsS+uqEjy/E/FWn4LzcLjdLmP5q1ygWlP8p2AIz1uZ6dc8HxcpMCMBU8lKPZ5wLI0GnTpuW418VLDMmdd96ZBhx0VeKOj1FitNzdAYy7PwCpwoiR8N41LrwexkOH2Y9+9KNByRzgyPcADmPSfxUuuXChAKJmAdarNjPyIzwa+8p39DQRaNwYlKfh2XhlbJs9tTfQRYNMHsxVeTgpyyo0ds8BILEM3p5mBAoemoZAXswOFQEVTUhIWOReFy8xJLfffnsKhqvprYECw8UIAE3hFcajZB8D4zc3TMKYgIPuSxQVKCQAHIDQWwOPQpgniFifDI/P6iIF2IRatC9plis6GvNKTsW62F/7wRIAhwIVno7vNZCU34HcDgvt8FDe1g5zWV7hpuaJ1HThLOMeu7w566SvIoBpwCY3qzAvxvrR+Pj4xe518RJDMmbMmLn2PPJ4CYxS/QPtuzl3cXk0jAWjde/mFE1YlkIDJXJNIMogR+bIuPbaawNQABsQgABDxtjUzkW5GwMFMgAHMEYi48k0h71m/uXGQKgLwEAHZCqMsG5tg2MBYLw00AgcW/GIYcqNQblgNA/G+cFzAZjyMH7Xjcn24OwL3rVrPx5yr4uXGJJx48bNxWCBDMVolfMor1KYhxHpbo/hYCy8ukaHR8PwWB8DOSmdq42Kdibm56BUzqBH8i0MmYKFhoRQ7kYBjc8Yt8JFANN+Ko8ELJbRgyoEGDcLhcC8V7GE33jP8vJ+AMo6Adee2JT+lHhjIAZ4txOwDRhTwVFNZJ85Hn5Xt7QwL8bNhX2YPHmyL3zEstx///1zgAzjlUdTzoMB4NEU3gk2GzQMh+9kcDI+wONOzn9ptNVDIYAM6GjcxathuBilDZetgEfhAC9LbsZ+al/5DtAARCGjDRq/cSy85zgo3V933XXBdmkLo0c/E+MAPW1leFzCXNrQ1FBN+xnr5Xjsm4kKQ8DFeSC8pVTPPmvORRswQaZcDC8G8Kx7+vTpC9zr4iWGJC4uLgmDpXqnNimFjSouYKBq9AU2hT0Yjp3ThJX3CR8xODwOuRqg8UqBAoOkQIDHcuGylbARz4C3Yl4NvBqeBYMlzJOnUpFDuRi/sZ94H/7PMWiKBHlWNUyjvKdXBwqAhLQABDTucXGsHDc3CR0HoaKONwww14vJ+yYmJvrqYizLAw88MJswCePVAxeU69igqU1KsKkhFVV1DkPifZhXw1AxTNbFstz5gUvqguWq8jT+i/ETzmGs/KbcB+NWRZSQlfANw+cVZR38R0+NwWvhWQUXs1gxFz4eEHj0EAkbLvWsRwFK+0UbnT1lQzTAyAs5n9woePWeLMYFyDAq8h0MF8iUowGaKnjyDuRp6kNoNaYGhiSvhkFxJ48EG+8xRJbBMAkHgY6QMRp4GmHMezwWORPb5XsBZUPFem1VUQXvAViEhLwyUpt1cWzsm3q72HCpeiiPzfq1XXkvwFQVUcq50DlSmMj5Ux5IlOAhi3G5//77ZwIZYKmCR85D2IjHUM6jUrmKBzZsGpmssjzeTCElIGGAMlTbcO0uS7xivBi4IAEm5Ws2fISPwEQIyv6yDZYFIle1Lt4TMqpfJscLWNw82Gc8n56eae8jr4KLV/7LtjTfPb+z3+yDXRiyc7CuBufTgJEjck7ZNiHt1KlTfeEjluW+++47DRldmGiLIj8TaPJohI7qO4hx2B11VYIPg00Gx3vlbK4hCzh+V3cnu++giih4I0EDeCyjtjM8I7+zHKoH88nDuN2o2CZgaTntk70/arLg/wAo7yi4+D4SXPJgLmCcM7sPJjesadOmzXevi5cYEkEGVORkeqgCoClHc0GzS+YqMAg28g2AE2x2vqbP6k2iEDIMOnkIGw7lQgIFw8Wzsj9sX+Gatgl4tpe0129vR6/sk7YjuDSIVVMyqAeMvVxvASM0JCJA1YQAZImJiZnudfESQzJu3LhEGzK8GWGjQOOzDZoafe2eFmqXAjYMSWGkvJva2uQZlLfxHYYqAFwI3M/29wIUw0eVQ7nLRlqX1qHeGIIFgOQ59VA/lpfXAlyBrGPRf13AVORQVy/1RrHb6Dhns2bNynCvi5cYEhcywEKBTA/Bs0FT21SYV7NhUz9CjfmyvZtCSdsL6Dt5IBu8MACl8oRh6v7f9lRsC5W3w0MBFKoBmMq1bLDClH138y8XMM4R50tds2zIZs+ePc+9Ll5iSO6///7pLmSAhQIZxQFyHkCzCyK2V1OO4fa6IBTCswk428MJOBswVAUT20voNwEow1fYaIeUfC8obDD0Wf9Trmc3MttQ2RC5IajWIQ8owAQXxyjAOH7OjUJEeTEbsqSkpHT3uniJIbn33ntDIdPjgfBoNP7yXnmaCiJhXs1uELa7OAGcwkkXOLtg4kJnG7a8hgxbn7Wc3gsCQjw8lFRtaHaRxQ39FNba27bzOv7LZ75nebV/KffSuDoBphyM8xAJsrlz56a618VLDAmQ4ZUiQaZCyA033BB01LVBo9FaZX7bqylfcz2bC5vt4RRW2p7ObvQGqrCw0lZ5Nqk8mqARRMqf7FAVtaECKIDEy1F9lLez28LsBmYVNzgelONVp2KOOxpkqampKe518RJD8sADD0yLBhlKIQTA8GiEkG7vEIWP8moqjMirYWgYlPK2MODCoHPBk+I15P0iqRqAbQUK11vaUJHHkY+puYCKonp92I3NdngY5r04XrWDCbBokKWkpPhHKcWyAFm0cFGQScnRgI33Koj0BjQMSqDZnk2wRQJOGgaeDaDAswEUWK63sqGi0AFMtIHR6wTV5Kjq+cGyCg8BLMx7sb8cE8er/MsGLBpkqampc93r4iWGhIl0+gKZnacBnHqIqAe/XRQJy9UUQkaCDaOzYXM9nBtahoWXdmgJHMrNAMaFyu5JAlz8pg7Byr/weMAa5rlQ9pdjC/NevYEsIyNjjntdvMSQ9BUyW1V9VK5m52muV7Nhs8NHgdYTbG4oKcDsoomqknYIqPY04CL0AyK7LyOvtIe5PUTssFDleBsslP1U5ZDj0jG4cPUE2Zw5c/xsVbEsX/7yl3uVk4WpltHUADZsqj7aXs0tjEQKI2WsdhjpFkvs9je3OonnUWkfYFRVdNva+CyoVL2MVMxguyj7wP4JLvXnjAZXT5D5xugYlzFjxiQCQ38g0+9qVxNw/KZ8TfOHqAIZCbbeejfXs7nAubmY2yRgVxnVQyNSGChlW2yf/VLvefZZ++fCFEkjQTZz5kzfrSqWJS4u7oH+ejL9zrL8h/8CF692E4Bytmiw2TmbC5ydu0UqkvSUtwkiG6YwL6VX1s/2BJbCXfarr3BFggxlO/Pnz5/hXhcvMSS1tbWXjRkz5jd4ncGATKDZfSHl6ewiCcCpbU2whQHnhpNhXs6Fzy2cRFMta0OlErwaku2QsD9wRYNs/PjxfykpKfmse128xJAYY86/8847X9AEMoMFGetC1RVL84gIOoWT9nAat0FbsIUBZ0PnejtXBaBU3/Mf1qf8iu0KLrs/5mCpCxnfjRs37pdFRUX+aZuxLhMmTKjG0IcKMo22VvWRbWk+EVTw9dQU4MKn0NJWgSjlO5ZV+5UUmLRuVTxRwRoG8EA1DLJp06ad4EbnXhMvMSYJCQl3DxdkAs2GyVX7e96zrP4nz2cXVIBRy/NeVU0pMAlQQSpPJY8YyTsOJWSEqMnJyb5L1WiQqqqqC++6664XAeFsQiY4VBzRqxSvo4KJ3tvfub1MbLW9Gwbufh5uyPg8ceLEf9uzZ8/73OvhJUZl0qRJWRj+SIBMoEWDzC6WuF4qDLJoIeXZgKyrfWyDex28xLCMHz/+rXfeeec3gAJQPGRDBxlFl/j4+B8WFBS8x70OXmJckpKSbr7tttv+4EIWCTQPWd9U6wGy9PT0ie759zJKZNy4ceuBA2g8ZIMPGWHi1KlTd7jn3csokqlTp77vlltu+bWHbPAh62rI/llubu6H3PPuZRRJXFzcJXfccccrPlwcXMgAjP28++67n3DPuZdRJmPHjn3nPffc8wqGrolDPWQDg0xDYjjm++677xn3nHsZZQJkY8eO/WeMD6NQr/ow9ZD1rHgwts/xcVzjxo17zvfwGOUiyGScGIcGZnrIeq/qH8l+cmzsP8fjIfNyBmQYKwYMSMxWxUhoD1nPqs7HHAfHqH33kHkJxIUMYwYgoAIUjYL2kHVX9fhnG+w7x6pj8JB5OS1Advfdd7/iQgZMGCEGzWe7KOIh6yxusBzHwP6wTY6PY7Ehu++++77innMvo0zGjBnzrrFjx/40DDIMFGPCqICGEBKPxu+jFTI79+J4ueFovR4yL6HSE2S6a2M4FERQTXgKXKMFMuVdbJNjsm8w2oaHzEuodEH2L9Egw8AwGOVlmoeRz4INuGINMnktlmOdbJf9sG8qPUHmczIvfYKMIojyMgDDowEb0AEbd/ZzHTLbe/FfbYt18h3/F2AeMi+9ki9+8Yvvvvvuu3/WH8hUeQQwPgOUDA/YBNdIh8wOB+Wx2D7rZXl5NJT1eci89EkGAzIVQVgeQwUofuc7DFHeTGDZOtyQ2d5L3/F/9oX9Y538h+2F5WUeMi99li7Ifj5QyFDWwXRrGJjA41Ulf+VsQGd7MheuwYDM9V4Cjt/0X9bDfnAchL7sm6aKY3tu+Ogh89IvGWzIMFKWlRdDyc8wYBVHZJx2Dgd4GKkNXF8gs0HjPb/p/6jWyXoEHBCxLo4DZR/UZNEfyPDWLmS+uuglgGzs2LFDCpkNkp2f8Z0+q0iC6nuWsfO4SGGmlhVILMv3AlKeDWgIF21wBhMytqsbheXJnnXPuZdRJmcbMgEhDyagwrxZmCdjm4ISQ+cz6+I3QaVXt6I4WJCxTX5jzn2O3w6Dx40b54e6jHYZCZDZXkmeqi+Qab3KvfgfywCUih1DDRm/81QZntzJQy7YDsd4zz33nHTPuZdRJh6ywYOMxzHpmdM8qomnzTz44IPfNMZc4J53L6NIPGSDD5mei9YF26uLFi3aX1ZWdqN77r2MEhmO6mKsQWYfmyBjWRsyqZ5TPX/+/P9avHhx+datWz/sXgMvMS4est5Dxme2x/6pDRBlWdoHeYqnnujpKl6NR+hmZ2e/kpubm/HKK69c5F4LLzEqg9XjI9YhY72cB4oawES+xbrYLt/zCN1IgLmwdT0s/plVq1aNc6+HlxgUD1l0yFiedfK0TkAiHFS+hfIw+GgeLExZ1nowfFNVVdXb3OviJYbEQxYOGdtk3byn/UtwhQET9n0k1fKU+/Ws64yMjJvd6+IlhsRD1h0y5V5dAHQrZvRXWQ/ekPXyQHkeFj9nzpz/nTdv3i3udfESQ+Ih6w4Zy/DA9kjeq6/KOggpyeemTp0aeDDeo0CWmpr6efe6eIkhGa2Q8T3KuumBHwaZC0tfVaEhpf1p06YF3ovQE7j0CmQZGRkesliW0QCZoOI39dbnuChmzJkzJ/iNSYLYT46V3ynJu9D0VgELL5iamhrAhfciNBRcUg/ZKJHRABnHxTEkJCQE3gSwCN8AQSEhy7KfHO+DDz7Is537FSoq75o5c2YAF/mXC5eHbJTJaICMXhksi2fp6n1xBkDyPBg+y/QnF9PyrCMsNAxTD9kokdECGRP+sE9Tpkw53YnXBaW/cKF4PjwXgPUElxSPOmfOnL+mpaXd6l4XLzEkowEy9oH9lLIdjJxhKf0tz9t5F14LuAgRewOXACNPmzJlyl9SUlJ8CT+WZTRBpn1mglaOgWMDEmDriwdT3gUsPeVdrmo5PCr7N378+L+kpqZ+zr0uXmJIRhtkUsFGKKlyfVgIaatAxAsBV2/yLhsuFI/HOWW/qXpOmjTJQxbrMlohk9JGBmysg0Zi9Ul04XLzrrCSfCQFSkJJziP71+XBgs/x8fEesliX0Q6ZDRvHw/+AhxBSVUg6AQMJcPUlNAQuXmk60L5xLjmnHrJRJB6y11QhJPNEEsrRUwNQgEtdoVyQwlShIY3d7AP7xPpswDxko0g8ZN3VLo6wDsABOBcmV7vavYJcTXmXQsMw9ZCNEvGQRVaOj31iO4R8gsiFC1XexfGzD2zXhcpVD9koEQ9ZdGW7KPvG+tQtS6GjXgkNtX0XpkjqIRsl4iGLrmyb7bA+7RPnA6+lUj7bYT/C8q5o6iEbJeIhi642ZFKtX2Ghxqb1VT1ko0Q8ZNE1DDKUfWWfNV1Bf9RDNkqkC7KYnhJuKCDT/nnIvPQoHrLoOgyQ/dlDFuPiIYuuQw3ZxIkT/5yenv5Z97p4iSHxkEVXD5mXAYuHLLp6yLwMWDxk0XWoIYuPj/+ThyzGxUMWXT1kXgYsHrLoOhyQpaam+mm6Y1mALNYfAugh83JWxUMWXYcDsrS0tJvc6+IlhqQLsl94yMLVQ+ZlwOIhi67DANkfPWQxLj5cjK4eMi8DFg9ZdB0GyHy4GOviS/jR1UPmZcDix5NF1+GAzJfwY1w8ZNHVQ+ZlwOLDxeg6HJD5blUxLh6y6DrUkPle+KNAPGTRdSghQ+Pj4//qH50U4+Ihi64eMi8DFl/4iK5DCVlXTuYn0ol18ZBF16GGjGejpaam+mdGx7Lcdttt7/jyl7/sIYugQwUZ55T59R988MHvLl++/CPudfESQ5KQkHDNHXfc8d8Yp4esuw42ZF0hIv/77+nTp5esXr36w+418RJjkpSUtB5D954sXAcTMs7NhAkTXp08eXLrnDlzfB42GmTDhg3vTkpK+jkGD2Aesu46WJB15V//mJSUFO9eBy8xLFVVVWN5uB1G6iEL14FAxnnT+1mzZu3Mz89/h3sNvMS4PPzww6t4HjLG7iEL1/5Cxjlj3/g/zy9bsWLFSvf8exkFkpOTsz8lJSXmIbvllluCB6+7APVG+woZ54pHKbEMx81x8YD37Ozsk8aY17nXwEsMy4kTJ968ePHil5KTk2MeMj6zz4DGPrsgRdPeQsY5QjmHOgaOjWUyMjJMVlbWSz/72c8udq+DlxiWlpaW9y9atOifycliHTI8C6+sl33ui1frDWQKDTkWjovj4H+8Z5nMzEyTnp7+nHsNvMS4vPrqqxcvXrz4W6mpqYExxDJkvOppmHxP+Kh9d6FyNRpk/MZ6+Z3P7AfHoN9syNLS0k6518DLKJAFCxZ0YAAYsAyD11iETCrYWCf73BNoYZAJKvaf4+PmxHY4Jo4jDLLMzMwn3PPvZRTIvHnztuXk5BhCRh4yziuVMKAAoFiETKCpQMF+3HDDDRFztTDI2D+O9+abbw6Ok22GQcax8ZqVlUXxo809/wMRY8z5J0+evOLAgQM3vvTSS+91f/cyQiQ3N3f5Qw89FBhBlyGQOwTGH+uQCTTWQY524403BurCZkPGetlf4CLk5Nh4FWTsg46HY2G/+C/nOC8vb5l7/vsqO3fufG9bW9v81tbWHW1tbc8fP378V4899tjvH3/88Z90dHR0HD9+vOzkyZNzW1tbr3T/6+UsSXFx8acyMzP/BGBUwAhryNFGC2TK0QQW8LC/qkJynGwXZf94ZXs6LhsylP1nvSwjjzd58mTK93/Nzc3td097Sv+tra2zDxw48OMTJ06Yp59+2pw6dco89dRTgT7zzDPm+eefNy+88ELw+tRTT/37E0880fT444/7EddnW7h4OTk5jxEyjnbIUNZBtZDt6dhUhme9/MZrGGTsSxdQwblEiQr4PH/+/BeOHz9+oXv+eyMvvvjiJ48fP370iSeeMF/5ylfMyZMnDe+BjVc+P/nkkwFsgPfss8+ar3/96+bv//7vzXPPPffH5557ruPIkSNj3PV6GUbJzc2NxxC6kvNRDRnr6erEG6yDfaKooTYwNAwy9oF10eaoqEA3LULFZcuWLXfPe0/S0NBw+YYNGyrKysp+tXHjRrN+/XqzefNms3v3bnPkyJEALKADLBRvxufnnnvOfPWrXzVf+9rXzLe+9S3zgx/8wHzzm9/801e/+tXqTZs2XeJux8swSFFR0Ruzs7NfwJt5yG473bjM9wKLzzoP0SCjcGRDRo6bkZHx+5KSko+55z2SnDp16pLCwsLFGRkZP1eOnJSUFBSkWD8gs+4VK1aYbdu2BZ4MzwVUChl5/41vfAO4Ao8GaD/96U+B7munTp3yUx2cDcnLy5vUFdZ4yLogY3tapj+QccNasGAB57TXBY9Vq1Y9sGDBgr9XyEm/Ule5PnSFAzwqwgsXLjT19fUBbHiuv/u7vwv029/+tvmHf/gH873vfc/84z/+o3n55ZfNr371K15//61vfWueu20vQyxpaWlvmDt37nOENlzE0VDCH2rIACU1NfU7TU1Nb3XPd5gUFBRkZWVl/V9Xw3WvVc0u/A/PBlhA9Z3vfCd4/eEPf2h+9KMfmZ/85CeBN/vNb35jfvnLXwLhZt+XcpglOTn5jtmzZ/8Vb4bhU2ETZBgbUPCdh6xnyBQRpKSkTHTPc5gUFRXdlZmZ+ZdI3qs3yrbxbqtXrw5ysldeecX80z/9k/nxj38cvP+Xf/mXQP/5n/85gA39+te/XmOMeb27P16GUO67774dygGABiPG0BguP3Xq1MCQBZqHLBwyPBigzZgx47h7fsOkqqrqQ/Pnz/+nvnqwMAXsWbNmBWHq448/bn7xi18EClxABXB4Njzc97///eD9U089VU/DtrtfXoZIUlNTP3Dvvfe+AmgYzMyZM4OLhwFgPLzH+NSONBohY3s6XgATZCzL+Zk3bx7L/Xb69Ok3uOc3THJzc8uAwgVmIKreO42NjacBI2QErO9+97tBMYT8DSV3e+KJJ6rd/fIyhHLvvfdOx8i5UORoAKZqGXdoPmNswPWJT3xiVEHGtvDqU6ZMCbYNYGqwJi/CwNleQkJCrntew6SlpeWSrKysnwwkTIykFEe4SVZWVgaAUWF86aWXArCoPFKBpNxPRZLw8tixY0vc/fMyhHL77bd3AMn06dMDD2aDxntyDhpeWQavFuuQaT3Tpk07XdTgPAAWvxGiEaqxrrvvvvs7zz//fK+KHbm5uZO5cbmADJayT4BGOxseCw8GXEBFmxo9R2jEBrann376Tx0dHXHuPnoZIpk3b97Hb7755t+Td3HnBiq7/UeGRu5GVyQ01iDje62P71TUsG84nBfaFzkPbPOOO+54NTU19V73fIYJeVB2dnZHXyBT6V7KPrnLuKo8jcZseS0arwWYlO9Pnjz565MnT17t7quXIZLx48fnAw+eil4P5Bq2V8M4uOjAFIuQsQ6WxRPoeO2bDIBxTjhe9b5/4IEHDrjnMZJ85zvfeUdmZua/9BQqAgkN0GqMzsvLM0VFRSY/Pz8I5wnrAY5r4f7XBW3lypXd+j1K6UFCo/axY8eeOnXq1EXu/noZAnnppZfefPvtt38bb0buhRGTiyhcxOi4+MDlQgY45CrqqX6uQaZlKAC53ovPaGJiYvBf/sP+jh079l+Liop63fudnvLz58//LaC6UEg5v8CTm5trysvLza5du4L+ivJC9F/cuXNnULZXVdhdhwsa61GoCFi28h09Rh599NH17v56GSKZMmVKPKAAGh4NxYC5q6oihsfCQIEMj4eBAhrvgYjvWQbQRiJkrJfijQsZU2iH5aIcM4UfluUY2Ff2b8qUKX0qHFRXV382Kyvrj8DhAgFYCk/LysrM/v37A6AAAch4pa8iuZS6Tz322GNBVytAAk53nfZ6d+zYEfzXBoweIyjrfeKJJ/569OjRL7v77GUIhLzh7rvv7sBTaXwVXo1XjJmLxkXFUFkGsABQd3t+p1jA9xgloAEtcJ0tyLQMqvfcCLiB2JCRi9qeC08AeOwj29J+8vm+++77xuLFi9/snr9okpube3dGRsarNmRsQ3nWww8/HHiuRx99NABLcOFt6GmvjsCEeEBG9ykKGwDEOgkjXchQ9X08cOBAsB7BJWU7Xd7sG1VVVf0aOeClj5KcnPyxW2+99T8FmRqhgU3DPMhbgI2L6OZt+ozxABxGDDBARig5lJDxmd+BnFeU7x588EEaiwODY9/Yd7wtsAEY6yAcxHMRguH1BJe8l/Tuu+/+U0ZGRp/His2bN28S50iQcX5Qci3at44dO3YaLowfuOS91MuePoqU5CnN042KxmXaxShwLFmyJDiuME/JMfE7DdasV3DZ22Nb7e3tOe5+exkimTBhwnKM0AYNJcxiNDHvgYCcjbsxxom6uYy+5zNejscGYag2ZBix7SlsjyHwbPiACQ9pQ8ayKsEDNV6JJge7cV37h6pSyv/p2cJ7luX/3ASAmFd3n9iPiRMnNrnnqzeSnZ2dwHngfOF12J+KigoM+wxj16BM8ijgAa4XX3zxdA97u48i3ajoo/jzn/88gJHCSKQ8DQBLSkoUHp6hhKZ8f/To0V8fP378Q+6+exkC2b9//1u+8IUvvKTuVK7KsxFy4d0wVjwFF1Nw2QUEGTagYagCDcDwJPwXYIGQ/I7cCYNX6MdnVQF55f+CDK+FhyNspaiAhu2DDT7fsRyGh5djHZFgl7K/Y8eO/elDDz30Afd89UZSUlK+hCdlu+vWrQvCN4HFqz0IU0NYBJfdw55GZvVR5JXP9OqgdweeiuMLK/Vz7tn+I488EmxHcNkKqB0dHRXuvnsZIpk2bdoDhHcuYK6qJwjvAQ5vAyzcUeVBUAonXGTBhacgR2O5riEiZ6hbhJCyLEDibfBiAAYkeAhBhdqe1M0Z+Z/2wy5oRFM8ZUJCwnz3PPVWCgsLk4qLiwMj1yjnMO+lvEvDVwgNBRFQ0eFXfRKBjt8BUf+haKJmABc0POjixYsDGNku+8F7lEIKOeCxY8f+cPz48evc/fcyBMKwiDFjxrTZRZBoincDOLwb0PE/jJe8CG+B1+Aik/sACR4LGF0QXLUBk0fEgPCIKmbg3fAQNqAswza1LfYDsNS0INBdmMK0q9hx4uWXX+5zYaCoqOjSxsbG8t27d/8nxqyKoeDCq9ihoZt3ARdjwwgLUbpMES7i2YALbweYQMr6WFddXV1wroHNBQ2PX1NTE2xXgAkylP8fOXJkg3scXoZICgsLr7r11lt/4QLVGwU6NQMAHZ/xjF1hVxAOAhk5kQBEgQOVgdieDJB0l8YjkXfxf7qD8ZlcjPASrwMcqnC6YEldmCLpmDFjfp+RkfEZ9/xEk6KiokuampqW7d69+xcABVx4DhsuVQ01shm4lHfZngu4AI3v+E39EYGLdbA+hZ1sh3WvWrXqdHHKVs4dNypyQf4juFAqm/y/vb39F/v373+/e0xehkimT59eEyk364uqARhvp3Yq/ab5DFXuJzcSCCqAEIbynu+UP7EsEKmniT6rjY7lpDZcfYUsPj6+V8NYJFu2bIlraWn5LlABgB0aqmpoh4Z2UUNwMSYMJTRU3sUyeDqg5P+Cy60Wsg3mBQGmsPwMb0YjNUAB1/HjxwPAqHDyyvoOHjy4yD0uL4MsJ0+evPTYsWMrW1tbf4xnYEJQF5y+qgaAonYfSLsXiRqz9d7+TiAKJHkoqRq+7QbwSJC5IIUp6wDuxsbG35w6dSr/5MmT73LPky07duz41N69ew8eOnQoMHQ377ILG25oSAjowhWWd9m9N8IAk7KdlpaWM6ICKbkpEcLBgwcD7yrAjh49GmgXZN/y3a2GSIwxFzz66KOpHR0dP8UoMAhKv2ETgfZVo0HmgiS1+0PacEmHEjL2hb6DgEC17+TJkz9+4okn1nV0dCQ//vjjk77zne9c+41vfONTTz/99JcbGxtX792797d4KTfvstu8WI96bQguQkGNZiY8tPMutk3exX+5HjZc0SDT93TRCmuoxpuVlpYGywAYivdDu97/9cCBA3e49uFlgHL48OHPdHR0nLDDHPU6oGBx/fXXdwOnr+pC5nqwwYIsGmC9gYxtkvPhOfA4hHbAgQIK3z/77LO/O3Xq1P/3zDPPvApEeDBN36bzZjcoAwvQAI8dFjLIklc776KyyPLc5Fxwo8El1TWkoTssZMTDUSRqa2sLPBn73dHRESj5Gv/ft29fvWsjXvop+/fvf/uhQ4dWt7e3/8FuQ9GdGMNi/j8g6ctjiMK0L5AJsN5AFgmw/kDG72xzw4YNQdjFOQESWwFNU7PxyjkCiNbW1uDc2aGh8i47LAQsPFdY3uXCJaB6AkvXTdVCXgn/mOEqDDQ8HJVIlgUs9PDhw4ECXmtr6w9++ctfvsm1Fy99lCNHjozt6Oh4UXdfteHwnouMoag7DmOpPvaxj3UDpy86UMhswHoDWV/gkrIPVDKByc6t7HYllO8wULsxl5sS4VY0uH72s58FgKkkr7wLjwm8dsWwN17L3jeKGHYhg++qqqpCQ0a+o1sXXkyA4dlQPNqhQ4f+SHTj2oyXXsqxY8euOHr0aN2jjz76J+668lzApfYWPnMn5CISvrAcJfKPf/zj3eDpi7qg9Rey/oSKLlCusi6qmBgaYRuGj5fCu0iBB4i6QsbTIHaVvwNvprAQD4WnAi66PynvIjQEPBsutXX1By63Ssh1Ax5eaaAmNHQbqCmIoNu3bw+W5ZgJeaV8t2fPnrmu7XjpQb75zW++Yfv27SkdHR2/UGdRGzCMBuVicYG4m6vRkztubW1tANlAiiAuZAKtL5DZgNmQ9RQqulC5yvbpmQFgLly2Kj8DEM4PUHE+8QAYvOACKuDCe2naNvIuAFQ5XqDaoWFvNBpcyq3wTnzHAM6wfo18R1jMf6g2onT5Qllfa2vrTteGvESRjo6OexobG59RidmGSz0PuHCccH537+IYE9/RyHndddd1g6e3GgkygdZXyAbLi7FNih2Efarq9aScD7waBsk5AyC8PjAxPRtwaXo2wANezqPautyKoQuSqwpNw+BCbbjkmfiOzshheRnfUYFkOQGG50NZx86dO19mQK9rS14ceeyxx67v6OjYcejQoVc58cq7uKiEJ7qTcsG4cIQu8l6uYiSEQ8CiPot91ZEIGb+zfgoBHKN73K4CF68AwnkDGvWIV0deIOM7wQW4hJp2Ob63gAmu3novAQY4vG9ubg6dsoDvGB7DWDaWBS6uLwpwe/fu/UtbW9utrk156ZInn3zyfW1tbcVHjhz5D0DiYnDCAUveizxA3ov3rvdyld/II5YuXTpgbzbYkA0kVGTbGJu8tXvc9vHzO14II+ecaVwXXgvIVCXEm/HehcvNu3oCDO0LXAJMYR9Kx2Q6V4eBhjfbtGlT8H/g2rdv32kFusbGxhmubY16YSrmw4cPJ3d0dPxIQHEhuSCcSJWX+U1tIvbduSclHMJgBlIEGW7IXKhsZR103cI4uYG4xytVDoWhY/CcB4oYgPWv//qvpz2X2tW0LpXj7WvRG7AEl6qGPcElz2WHfYJmz549wY0xLGSkYZrJevgfy+7duzdYHmU9NTU1Ga6NjWrhAXBHjhx5HCNQ3sXF4gKrmMFdWK38vOfuHc17hSl3aJ6fFe35y9F0pEDGb2xz7dq1EYsd8l6AwjnknFF6J9fiYQ4Ahhcj76JiyHlHw4oavQEsLDS0e2XYcLmA2TmVgMGLAcyyZctCS/lUHRkCwzICknZRlPXU1dXluXY2KuXo0aMfP3r0aNORI0f+ogZl1C5sYCScRC4KFx64BFiYusZmK0ZHGMRF60/YOFIgY93Rih0qbGDonEtAVFuX5p7Hm5F3UTHkvAEi516hYV+qhi5crvfqCS7bcwEXuRbzgPCeCmMYZISQjHJgOQHGrFh8Zp179uzZ7NrbqJITJ068uaOjo4C8C4i4mHbV0O7ag8HoQrAM33NX5jdU5XsNv1B5OlKehlFxcYGmP0WQntrK+gtZb3MxfmPdTU1N3YodutEACQZOTkWOpbxLZXnau5R3aSpsPA3A9CU07AkueS875wqDS55LoNAGRkdh3keCTB2IKY7wX/t/XaHjI67djRo5dOjQ1CNHjnxbQHGR9B7jsDulAgpVL165ePymsERVLvVi4DuFlrwCKutR2CTgeCXvYKYlvFlfw8YwyGxvFgmyaIC5kLlg2cp2aaR1ix18xntx7JxHIMJ74bWAi/d4Lwoe6gbF+eGc4r0wfheiaOrCpXN/ZmjY6cFcuNywELjkvQCFZ5hxE0HJySJBhjdjMCf/BS4U6Lpysx2u7cW8tLe339TW1tbm5l0AhlGozUudUjEE2m9IyskbuJhAJa+l/ngYFq+qgim3YHkuOsbA/1hOsHEH5z3J87XXXtsNpGh6NiFjO4yY5njUGVeg8R03IjwT50uhIa92Vyhg1KhkzpNCQwDQNdF1ccFCdZOL5r2C0LD9sGk7fNjs33/AHDx4yBw88FqpXYCFwQUkDQ0NQbME+bOmgAiDjO9pS8OL6b+Ayef6+voS1wZHhBw5cuTa3bt3x7e3t+c/+uiju48dO9Zx/PjxjQcPHpx57NixO1988cU+jzw9fPjwZW1tbdUdHR1/4KLqQtlwAY4GA2I8GkrBnZcyM0m6QhoZgjyfHd7Iu7Ed1qmGU37DAPivYMObsSyjnfvSt9FtLxsuyFgflVFgIOQVYCrLc5xApMohqiEoeDXOq8Z22XmX4GS9NmAuZHZoiIbBdTr3am83+w/sNzt3tJidLU1mx/ZtZs+efaa1df9p7wVcCvHkuQTX1q1bzZYtW4JJU+3Q0FUgW7NmTbAe/Z/H5gJbWVlZtmuLZ1W2b9/+N/v27as6fPjwf3J3so0U4+6qNP3vyZMnf3rixIna9vb2z7nrcIXBc21tbTlHjhz5Of9X3iVAtA17MCA5hh5rqoGAUgyEO6AqVlxk9tVW+zsMge1pOxyHchWMjO1hrOwLM0/h0Rj97EIVpjZogwFZtHyMz2yHaQ84JnVtAjJ5E7wT543zROUQwDiH6gpl99aQ9xJEvAcwQjr7e1vt0ND2XmfC1RaEh4cOtZldO3eZHc315vjhvebZx9vMo22PmG0NtaapqdHs2tXpvZQ/AQRDW4CD0A+4eJQSGqmyKOU3cjbWw//pPsc6eF9eXj7HtcmzIkw889hjjyUdO3bsZd3xOaEKCXRXk6GqV8UzzzzzP08//fQjTz/99BfPO++8bk9AZPrkI0eOnNJFVN4kuOy8SzmSO/mKwkSFORgVd0CMgYvKxY2mGACGgFEINrX9CFbWCdh4UcISSvuMP+spT4sGmQ1afyCzAeO/rA+DwsjVvUlleV7x+upvqPCQYgffq0GZ41Ybo+uluCaEcJwv3kfyXmGhoTxX++H2IDTk+uxoaTaH9uwwzzzWZr765BHz3BPtwSuwHdizzTTUbTU1tbWmCe/VFRoCB3DR854GZqYZYAo6zX3pwmV7MnJrIBWgeMGqqqpXm5qa7nTtcthl3759t2zbtm0P8TBGR2KqfMkOJ+yQDjAUbnVVtv78ta99rfWpp576BOs8duzYJ48cOdJy7Nix/+U/YaAqn8LANZwCkDAMW1UBw6g0Bop9FGhuLwE1aKL6HSPAGGQg+p3jxHgwFo6Huz3hFBecWaoAracOxZHCxd5CFi1UZHnlXxiPzjfnQDdBANIASpXlea+yPOdXN5WuSKQbYLqpkhu5cAmwaHAFJfnDh83e1tYArv2PbDNPHTtoXgjg6jBfOdF+Wvn8wlNHzJPH9pu9OxrN1s2VAVRbtmw11dXVp+Hi8Uk8nILiDp4qbHZhGzKWB1LyN9YHZBs2bPgeFWzX5odNysvLr8vJydmVk5Pz34sWLTrjwQF0uqQ3N+4WQ1RhQWEjn7nQqtJx4bmLfutb3/qPgwcPPrZ3797/p/YuVQ0Fqf4PMBgIAGEQVLtQGzS8mipg/EfDM7jAxO82UHYyrYSaz3yvjqa8Ep7wHfuF0alQgsGwvxgywLN/5ALMjYhnowIZNujTzcv6C5ng4jv+w3qYNo4HM7CfKlawrxwbBs/5Aij12lBZnmVVlleDspu3upBxTrlJKZwPCw1tuALA2gCswxw4eMjs3LHd7NpWb0607zNfPXnEPO/A5erzJzvM1548ak4eaTVNW6tNWUmJKSldb9aXlpg1a9aaopUrTVZGxumngkZSFT64VgBGeEkRpAvYla7dD4ucOnXqkiVLlqzKysr6d+4S2lHtNLBx52AYAa8MduTph5xo5QAaTctFBwLumBgmCTbKxcSgbbgARHkX/9N/AAkFNAxEPb6Vc9jjn9S9B8MgwcXYVA62GzHV4s97lgFCxf8YhwxH4SvrxRgxLgwJo2QfMVa+JwnnvADRNddcExRImDdEuZsdMtptZQItDDJg0ivfsyzr4D0Pi2BuEs6f+hJyDvEi7Buf5dmB7Fe/+lXwat+UbO9lAxbmqfiecwRA8mo2XGi3osbhDtPWdtjs2LXD7GxpMMcO7jbPnTgcAOYCFU0DIJ88Yo4e3GkqN5aYvLx8k5PDs8xmm9mzu08L56rGlTHkBcB4RUtLS//Y0NDwSdf+h1yKi4uvys7OfhG4oj1ryla8G3cTWtVxw1wwLjwhHiBgiFxceSAN8AMmdYPigivvwgj4D4Cpx7fgshtHWZb/KI9QqINx8B6oSHQFmUrBqlSh6gWA12NZDIR9wljUjqZcjeMSyHYbGwbL8XG8bIt+cpwTZsECMLwc0BFaao5GVPmaXd6X8j3/5T2gsS6G4JDgs894bdtzYfQo+4L34kZGYYNzxo1I0QDLaw4P/ucCFgkyPBbniWN2ATsjNGx/rbfG3r17zM6WRnNgd7M59dihztAwBKKe9Flen2g3Lzx11HzliQ6zo3GLyc6aF8zLkpzCzT9ymCjIsGU8GXARNuIUiouLH6fW4DIwpPLII4+8Izs7+xvMZ+fuaG9Us9ryf7wUUOkh2sBFgUJzP0gBhAuIcWhOdEJLG0zBZY+0ZXmMRY2kbiLOZ4wAcGwvhoHaDZi8JzbnPfusHC1I0rvytGiwsS2V/DFaeTduFIDPNvE49J3D0zHjL00BhHlMgsqUbEyICkTMFswEpkxoSoTA3BUk9dwUWL/CbnVgBgj2iVd+U0GI84XXUlGI86b91ghl4LIBs8+dDZjg5Vxwg+I7tunmXe1deRcl+X2t+8zO7c1m764mc/Lo/sATuXlXf5X1fP3pR82px9pMTfVGk53V+azrlAile5QbHsUqION8AtmqVat+V1FRcZPLwJDK/v3735idnX2IfMvdyb4qB4WRUMHRuCNNCWYPT+eOy+8K8bjbohiFnuphh4ZqGFb+pf+5uYOU34AK4wAyXoFOVSrySZJoYnN1MmU5jTUCOMEmz6YqJIaHcbIPKnezfZZjGbbPDUSTeqK8V/uTW2Tg1c5HgYZjRvU/jodtY9hsi/WrrVA3JFTzGeqcKTTkeNQswfbC4JLnsosZvKpPqADrHhq2m4OHDpmdO7ebXS2N5vGO1iCneo7Q8InusAxUnz95xHz91HHzREerKVv7sElJnmOSIpTwSWuY60OFEqqMxcXFaS4DQy5Lly5NwwNFq9D0Rblr87geknLCQuUEQIMRYBgyPAyBi4rhAZ+KGvbkl3Z4KKMWXDZYtrIMXgwvhZGQc9HWojIwFSrubnwHfACJ11CeZsMm7xYGG/vAtmzgbCNVhVLgCzDbo+D1MH67Wst65Ul4Lw/KuVAorhsTqvOpPFWFILajGxLHxL4rbw0DC7ULGgDFeZFXd6uGh9oOd4bhLU2mvXWn+crjyrs6gvCwPyFi77TDvPDkUfO1px81B3c3mRXLck1S0mwzxxruoi5VgAVg2GNBQcHDrv0PubS2tl6clZX1TXIqF5aBKuEjbRhcQEJFzbunxFxeiTs4F5D3CnFULlcDqap8PcFl35kxGEJCjIAcDC9GhQm4OPF4MaDje4WPLAeQ/EfeDVhd74ax2Y3dNgzsp4olGLoLH8p79YqwjZ1j4L9qvkABB7g4H/arbj6CSuGz8i29qomF7XITUZip7WqfdGNQKZ5XzgHng8+nq4b0NWxvN3v27jE7WprMwT3bzanjhwY1NOyt0r5GCMl2dzRsMUsXP2TmMN9H1xM6qYwzd35BQcHfFxUVTXbtf1hk+fLlXyAxHCwv5qomOFFJWSGMm4CjXEAMRsUNNzSMBJcNlm04vKq/G94KoCjfckcjfKDaBGjkZVQIXdi4gws227tRabO9m5u7qRcJ+yYD5zgFHeEbyrFJuZGgauvj/KD6Xsp3dpOJPKI8YJjqvPCe/eTGofMk0O2GZHksVE0hHKduMPsPHDA7treYR3Y0mZPHDpivPnl02OFyldD0xWceM889ccSUr1sVeDVAy83N/dcVK1YUt7S0XOLa/rBJbm7uWpXqh0q5o+ApuUjchd3yMaoQEOOVQbm9D1x14bIBU5jGnRu4MBa8GHc1qnSEi1SZlJcRQqqrDT0DFEbasNmhJN7NbtB2iyUKKe2QkX2zbxT2scv76VWqUNL1TGHHb4MV6TyxPd0k2B/to/ItVVdRjnPH9h2n869DbW1m1+5dZse2enPs0CMBWORersGfDf3qU52gH2ndaZprKk3K3Nl/zc7Obqitrb3MtflhFYbyZ2RkPDcYBY+elIII3hIj5U4swFzQuJPiLfR9T2DpOxsu3ZF5xaAACC9FCZchEYBG1Y/50vkO70bzg7yaCiOCTZ4Nr2iHkgLO9nAudHb3LcGntiUBKLXDNlvtZexlBa19LiKpDR//Y/8Fl8LDoKBxpBMolGPH63W0HzF7HnnEbN/WYNr27TDPPtYWlORdQz8bShEEwI4e3GWat1aYmooSs6Nhq6mu3Fju2vtZkVOnTr07Ozv7n8mbXCiGQvFobAsDVEdcN8wBLnWBsiFz4bJVYY9tMHbIo75q5GE8e5jeKvTKJmQENLwaoOHVgA2P58Jmh5HybgCnyiTA2fmbgLOhE3i2CkJbtd8cgw2mcr8wr6jzp5uVVOdY51n/6RoVHKzT9l70L0QpxW9r2WYO0Et++3azd0eTeepoa2hXqLOhnd2vjgbdr/ZsqzGbN6w1dZXlgRfb3VRrjra3pbr2flaksLDw+oyMjP/X24bnwVBA42n1GAnhkA2Y7rQYBIaKockwwlTeKwwuhTi8AggQkQSzbRqMVXGi7QSvpsZKllOuphAyzLMplFRV0i2WyMPZ0Lng2R7Phs71epFCTt2UFFZK1XeUV7cnjG5IrJdjYPt2xbCN4k5bm2lobDSNjXXmke2N5rHDe83zJ48G6hr72dCvPnksqC4e2NVgtlasN7WVZaZp6ybTVLMpeN3dXGs69u/Lde39rEh6evrfpqWlvTqckKFUHfEkyrncPIL3GAJeQgWEMLjkvcLgsj0H62F7NFMQLi5fvjwofgg0JpqRV7NBk1ez8zUVR6LBJu9mA6eRvpG8XBhgyus4TsElqIBHfTypPlKFRXmv0d3ktcp/OYe2t0fVSM92GYLCvjBwcntLs9lcucEqyXd0tnedZQ9GL32KLB37d5qmrRvN1o3rTOOWisB7BZB1aRdkBa69nxVJTU29dygri5GU9guqjngIQLNzB4EEfBghBmnfhd28KxJc6nnPK4aE9yJUpfcFHZwLCgpMYWFh8D3hI6DJq9nho+3VIoWQkWBTscQOJ23vZjcL2IUTGyzOCWDhlYAGiGgCoa2M5hA13tsN0W7/RJ0/nS+dM7bNvncC32Z2P7LbbG+mK1RL0KtiJFQN0SDvevKoeezQHrO9tsps2bjO1Fdv6AaXDdmRg/vzXXs/K5KTkzMFwxtuyFC6YbFdDE532rBwEAPFOOwwR3d5GUsYXMApQ8a4qShSfCEnAzQ8mguavJpAo/poF0XsXM0u+duerSfQXMjYX24QdkWSc8E50Vg6dTujaUODVWl3VDc1XvkOyDSWTF2oiAo4dwLMvhnxys1ix85dZnvLNrO7pd48eXR/0MjbUy/54VAAB65Txw+afS21Zmv5elNfuTEiXGd4sgOty1x7PyuSlpb2wNnwZFI1FmJYtreS8hljwDjxYJHyrjC4MGS78sd28J40VzBygM+uR3PzNBs0hY+2RwM0N4TsyaO5xRHlRCpqABilek0QhMfCOwGQ/QQVuqvZjyhSA74AI0IQYNycAsC4IdGQ3NY5voshKI2NDaapbos53rY3AGuklOSDDsEn2oPeHPWVpaamYr1pIjTcGh0wy5MVuvZ+VmT27Nl3ANjZggwlP8N4uesKLrt8zWcNwAQyGy7UhcsGDDgxbD4LMtrrAI1OowKNvm2AxhB1yvsuaG5BxPVodvjoejTB5pb9wyDjWAEDQNSHUZBpuI/6KIZ1PVOIqJ4xujG95sEOB4AdOsTDFnaYlqYG03Fgt/nK4+Q7I6WocdQ8/2SHObxnm2ms3mi2VpSE5l3RNPBkhw6scO39rMiCBQs+k56e/sfhLnzYSthIOx3GhoG57UMYHjBhtAIsUmgouJTQAyeeBMOm2EEPd/JBtiePFpajARqFEkBTid8Fza48KnS0QZNHc9vX1KAtj6aGYRc08jCKG8rD1J1K+Zg6D2vcGFCq4VqA4fU5X6pktrUdCrbN6OTWXU3mqUcPjpi8S6Hhifa9Zkd9lakuX2fqqiLnXdE08GRtB8/OgExX6uvrL50/f/4vzyZkKMMV8BoYluByFSPFKMO8Vxhc9tgx/ksoiNecNm3aabABTTmaDZo8mg1aWIlfHg3YwkLHsIJIWOioaiNAAAbHS6gMbEBjjzZ3u1+5xQ15L+WqnefpgDmw/4DZtWuH2bO9wZzoaO3V6OThUPoevvDUMXPq+OEADooatV3tXS48aOPWSrO9brPZUbc5eO/+PuIg45m58+fP/95QdA7ui2oSFAxP5Xvu6lI+AxOw4MHU5iTAMFbu0IKL5TBqDFyGTuEDuPBkzDoFcNxc8GZhoKkYItDC2tLcEr8qj65XCyuIuKCp0qgKo4ogqjDaDcp2A7MNlsLozlL8a+eHsnzt1hqzZmWBeerR/ebvnn08qNi5Bj/cqhD10O5m01C9IQgNA1AiANZSW2V2Nm41m0rXmPK1q8y2uupuy4w4yJD09PTHhrrvYm9U437kudSWYxc6MFoZpOu95LnUIRjDZnnlS1RRmfxGz6zCewIb4PXk0ey2NECz+z26lUfXq9mlfterhXXRctvQbOjcniwKnVnOzkftc8N6+b5q0yYzO3GyWZidZpprKoJ2r87e692Nf6iV6QSCKQUO7Ay6Qm3ZsM40bo5UNawMvgcuwseF89PNXV9ihuTPmBV5i82O+s3d/jOicjIkNzd3/UiATGN/MD7uzq5R8SoPJe9l510uXO4EmIDFkHWUUj5ejG0y7k1DclzQyOMArWug3xmN1mGVR9erubCFhZCud1O+5vYacQs7Akkw2co6VPRhnXxXWVlhUmbPMEkzpplZ0yebFXkPmfZ9O4LxWKrkDbUq76Ln/o6GzWZzefT2ruatm8yO+i2BxypeWWAeGHdfMG/KdR+7znz4wx8285KTAvjc/404yPLy8h44W21lrlLSx5iVtNulehQDAyCFhhim8i6M150AU9N/4X04Prwlr4CFF2ObhMrAxrY1WsCuOgq0aOGjvFpYrhatAukCZ3s35W5SgOmNKmRW2Mw6+b5i48YAstSkmSZtzkyTlDjFpM6ZYUqKl5vH2veaF08d7/MkN73Vzn6Gx4K5Pva21JqaTWWmZlN54KVcQKTb6zebXY1bTfmaVSZx6oPBRELMk3L11deaq668ylx++RUmK21uRMjaR0oJH1m+fPnlmZmZ/3m2ix8ongzguTsrx7CriYROGKyKGXbehQHbngu4MH48DqEfICkPAzSAwqsRNrJNCiF8zz4QQgIbXg3QyOfsyqPbFcvO1dwQMppns72bDZzr5QRfNNVyCpmlrJ9tryhcbpJnJ5rUOZ2QoSlJiWb29MlmftpcU12+Jhh4CWxA8eyAw0iKKp2ei+5YB3Y3mrqqsq6S/KYI3qvCbCPvatpqNpWtMSlzZpkv3H67uf76jwezgF111VXm6quvDt73BNmRttblrq2fNTHGnJ+VlXViOIa79EYxfoyUpN/tycFnjAZjxYDsvAtDElwYO4YPBIR6gAVIeC8NuUEFHsp7tZ/ZU+EBG5Pa5OXlBf0d1Whte7VoIWQ0z+bmbXY4KRV0tio0ttVelnWxLU2Bxuua1avP8GS2Js+abmZNe9AsXZhl9rTUBkWRF07RCdcFp/fKOuhQfLxtj9lWuynoJd8QMe/qhG5Xw2bTsLnCLHlogRkz5s5gWj1m+rLhQq/uDWStIwgyZOHChStHQl6G4kUwakGlNh4VAgiDMF7Xe3VNVhkYFaEcEJBX4ZnwVuovifeyQ2PBxjLAxmf1CGE/gI4bEJDSwRjvphBSZX43hLRhc8NI9RgBAhVJXA+nrloCL5IKRJbjf6yP7aqjM9thnXi3stLSiJCld+mcmdPM3JnTTFH+4qATLpPVdPZ47w5RJNUQFNrgdtZXdw5BqY5ckkcpXjAGbFXhsiDvYso84Lr6qqvPgKsvkI2YblWSoqKim9LS0v46EvIy5UcYjDqxqk0MJeG3PQNGixFjXBg5Bg8E9E1kWIt6dgAOsAAajdLqO8k2eVVeiqfTbxRCWAf5Ga98Zj2s0y6S4OFsz2aHkOyXnbO5oSTH4Xo5KYDY4PHKZ4Dkd4XEbEfbYhv8JhD5D9tZuWJFEC66gLmamjQjyNfmJc8ym9avMieP7DcvPnO8x5J/UNR46qh5hrnsdzYGY7tqKkq7DD8csJa66gCSYLqAmYnmlltuDfKuAKSrruoG1zkN2YMPPvj6rKysEVHKR/EqhGSCzG7z4TMGqdxHd25yJIxdQ1kwOgwSQ1NIqRCK5diO/SBvoCKsJDwEOGDne77DgwEZ+RnekRyN93wHaCjv2baKJWoCIH+TZ3G9m4ALg87OKwURHpJ1CWJ5THks5Xi8Z536L9sqLl5lUpJmnpGTRdOU2YlBFTInIznoO/jMY4cDzxbWO4QhKEDYvq/FNG7eYLZuKDGNmyPlXZtMc1d71+aK9WZeyhxz++23Bc8UUN7lQuVqryA7uH9kDHWxZenSpeNHSpURT4LRqn+fXbLmFSOSkQEXQOJRMHI8iXpdKO9RKKbvCTUxYrwRnk1ASQELrwdc3Hh0XvgOr8h2AA2IpORqKIAJRpT35HN6z+/8V/mdcjytgxBUaud8eGmgAUaFmqpY8srx8BsQq88loGm51auLe+XJztC5M83cmdOD4kjewmxzYFdzUCVENb8HgDHP4rYa8q51QU4VEa6ayiAs5DV/SY4ZO3ZM8PyAa0PyrmjaK8hGyngyW5jgdP78+X9/tnt/oBg9hk7VDMjctiAgUUkdw8Xoec8dXW1kNmBhKggxbj1Mw90PwabwUKEirwDIdwCk6iOwAIbGpgEHr3y2vwMCVO/VN9L1dEDCMdnFEjVNyAOqwCNvx//kEeUN0ZUrCk3y7BndQeqlzpkxNfBuq1fkmWMHdgUh5NOPHjK7m7aamk0lUbtCoUzXtr2+2qxakW8mTogzN990c9Dedc3V4XlXNO0NZCNmPJkrCxcuLOzvNN2DreRlGBvhodvASgVNoRqwYUTKWVyYoqnCSYwcmFQgsfdD+Zo9REbb5pXPei8FPDyWPU7NBgwwbKBcVY7J76jCRLuSyTpQfuf4AUreTBVWoNNy7FOfPdlp7YSTosns6VNMZmqSKVuzMmhIrtnUmXc1B0P/K7oZPHkX7V0b1q0yM6ZPCdq7rvsY7V29Cw3DtDeQtY9UyFavXv2RefPm/Xa4JtaJpoRxhFR4Mrv3AgoYeA+MSO1NLkB9UbUlqT0NwO2Hytn5mgubQkGgUoionI0QFhV0mvZAlUlUBRO1v/GeV/2mniaAJfCUw/EKUIApIAUWMAMl63t41Sozf36WSZ7VX8jOVEr+hJB1VeVBu5Zr5Oi2rZsCuGqrys2CrFTzxS/cbm644UZzzbXX9ik0DNPeQNZxoDXPte8RIzk5OUM+D2NvlLwMY6b8DGTqwYDitTAeeSIXmv6oigYYLVCwDy5sasiWZyN0pMyvkdZ2w7W6Y6lNTdAAkODRZ3vqg7AmABsiVStVCGF5AFT4ybq0PfaDfXto4UKTmTGvy5PN6gZNX5UKZNrcGUGn3rAQke/wbAVLF5p77xlrPvHJGzvzrn6EhmHaK8gO7h8ZE+mESWVl5fvmzZv3k7Odm+FRMGgMH+9ld/7lFUNn2AoGprYiF5z+qMrleAqMlH0BNvXgt/fRLpBwQxBw8l42dCp02LCpjU2QKRyUKncTQFIty/8ELTCr8ML2uQFwDfGsVdXVZv36dSYlaUbQlcqFpq/aCdnMiI3LLXVVZktlqbn++o+Zyy67ohOMQYBLevU11/YM2UiZrSqSLFmyZAYX6GxWGjFoDBvDx4upVwMKZBg2jx0aP358YODkMWqgdsHpj8qzARtgAJAatPFuNnDybmHA4eHUD1JhpaCzq5LyenaYaKvCS8HEf1kH61JzgnqrsF1+x/NxHJyzkpK1QTeqYYNsU6m5+uqrzPve94HgYfYuKANRPOKHPvwhk5GSFISk7vY7c7LWpa5djyhhZuF58+Y9fbbDRip+GDleTB2A1e6Fod9zzz3Bc714pCzP9sKAAYRle1Nh7I0KNl4J2zBqzotyN/aR9/K8wCbgFFJShbQLJALPLu3j8ZTPKX+zVb8r12M9wMzNUBVQflf7oHqMcAy8rl8//JBde+015gMf+OCgQnbFFR81l19xmbn9tltNSfFKsz1kTFlQXTzQusS16xEneXl5d2RkZPzlbHYcxoAxGryYDB0DojxN9ygepsdD9fRgvXvvvTf4nju/gHShGYiqmxPldPaL7WDs7Ks8L56OV75TwcSGTuBpsCgeDwVCgYiqWxfKcnhI1qX18cpveDbyMkr7CnXD9nv4ISsL4BosyD565VXmsssvMzffdJNZkJlm6jdvDJoE3G0LssPnAmRIdnZ2xdks6eOtyDsId4BL3Y0IDfFceDFBJpV3w9DJ1+xOxIOl8hQCH+gFHV4HQICAm4Stes62cjypev7zqlAU1Wd18cJTARV5GZVF9kWePZrnPpchoxJ56Uc+Yq6//jozd/YMs7miNGibi1TVFGQd+/cvdu15REppaelbMzMzT52tsBEDozCAkVBiV5cj7twAdf/993eDTN8TQvIej2F3KHYNcDDUhk7ek/1ku1QAKU4QZhIeooSLqDyV+lnyqnI/+RcwkVfR/sXNRdvgVV7d3ZcwPdcgu7arUHLZ5ZcHkI277x6z9uHlwRz3zO/RvKU7WN0h23duQIYUFRVdnZGR8W9no9rIHR9Dw8AwNO7eQWfXlSsDkCJBJrXzNYwXUAczX4uk6sKl8E3wadyYHfq6y7m5J7/1BagwPdcgu+KKK8xHP/pRc8cXbjfLcxcGo6N3Nm7ptp1Ies5BhuTn509THuCCMJQKZIR88goUHgCNfSEsdKGKpORrLE/vezzEUORr/VFB5n4/2HquQHbllVeaSy+91Nx802fMkofmm8auBm36RbrbiKZd1cVFrh2PeFmwYEGJRg+7MAyVkqcQGgKWGmLJ0SZNmhSaj/WkgAZwHAM5lLyFa5SxpiMbsmuDkvxll11mbrzh42bW9Cmmqnyd2d1UE8xO5a67NxpAdqB1oWvDI16MMRcsWLBgH/nZcICmdig8GYCpvx4FgL54MVftfI0CBeHncISQZ1NHKmSdeReh4RXmnrFjTOnqlQEgLXXMQNW9H2RvNYCs9RyEDNm/f/9bcnJydg2HR6MaB9AUDtQPj1Bv8uTJZ5Tu+6t4QmBlmjjaoIAsVmHrhGxdxJHRfdWBQXZt0GOD9i681xdvu9UULM0xzTVVZkfj1ogTlvZFKZAc3r/vIdd+zxl59dVXL1y4cOH2ofZoQEbJGsDUYZZe8rSFucAMRJWvMf8HJfihKPmfbeV4SkrWjwjIrrzyKnPppR8xN33m02Z+ekrQk5/QcFtt9/X0V4GsrXVvjmu755T87Gc/u1gebSiLIepiRDWRzwDWU0Wxv6p8jWMiPI0V2PDMtDOuWbM66IV/tiC76iryro+Yj193rZkyKS6YBfiRIDQMb1AeiMYEZIgx5nULFy5cr+H6LiD9Vbyj5j+k4ZVuRBRACO+GCjAp6we2uLi4oP3qXM/XuEnQE2TN2rUmPT3NzJ01rRsw/dGeIas2WypKzVVXXxlAdsVHPxq0d9335buD9q5djTWvzfy7hdwLZT3VZlvNlq7HI+n7vudmQNZ+oHWBa7PnrCxatGhaVlbWrwczTwMyGmcJScmZhgMwW9W+xrbphEs7FbC5RjxSFbi4MVAsoovWwkWLTGZmukmePb0bMP3RniCjN0Zd9UbzyU/eaC55xzvM7bd93izLW2i21W0Oes2f+Z9OwBq31JjaymJTU7nMNGzphK0/gKFAdqh1T+xAhhQXF1+zYMGCDk2d5kLTWwVSdbgl/wKswShy9FcJT/Fs7BO54Ugv+avhmnCXYo4eDZWXn2+yshhPNjyQoYC2blWhyUyda7ZsLDW76AoVumyVady8xdRVzTFtB680j+z8iClfP8ZUbyg2LbVbTdOWsP9E165wcb5rp+e8GGPekJOTU5iZmflrPFBfhsqoIy3GjPeYMGFCANdweq9IqhCSV/pxMipgKLto9UfVrYvQkGEwGkyq7lv0dhluyFBCwl20d0XMuypNU80WU1mWZlq2vdXs2vkGU1vzRlNff54pL73cVJYVmOYahrIonHT/H65dnizLtdGYkerq6ssXLVq0LDMz8/sahsGrRhXbqmEhgEZvDIWFIwEuV1XyT0hICPJEunqNhHwNuNgX+njS7kc7oobSnG3Iomul2Va72WzduN48vPJys2HDG83mzReZ5ubzTUvzeaap+TyzsfyDpro83zTX1AYPn+i+jnANINv3SKZrmzEnx48ff9uSJUsmLViw4FBKSspP0tPT/2RD1wXev82cOfO/KDQMZeVwMFUlf0ZlU/VUn0PX+IdaFRrSQA9Q9kSsgmtkQ8a89zWmdE2iyc29yKwpfrPZtu11prnpPNPUdH4AGe8ryi8z1eUrgmXpZtV9Pd21K1zMcG0ypiUzM/MtFRUVn164cOGspKSkRSkpKVmFhYXj29vbPxgfH78IyFxjHumqfI38kS5aw1Xyx3MCNZVPijKEsHoKjQvXyIWsc27G2soNpmjlNWZl0RsCL7ZtG4B117LSK83mDUWmpabWNNX0HDoC2cG9j4wuyKJJXFzczIkTJ3Yz4nNB7S5a5EH0sRzKfA2IGUlA/00N6nSBCtORBxlPzawz5SXpZkXRRWbduotNc/Pru8EVaJdH21gGaMVmG8WQkPXZ2unJ9sxzbW3UyoQJE1IZiuIa8Lmkytc4DvI1gBjMfA24FBpqLo9IoWGYjjjIaipNfTUTrn7KPPzwBaZ6S2QvhjaTozWdZzaUfsxs3biuR9A8ZI5MnDgx/VyHTCrYeMggXcEGWvLXODNGgtsleReinnSkQdZSx0MmssyKwovNmjUXmaamN5hm8rAQwKTbms8zjQ3nmbKSG82WirVmG6FjyLrRzr6Le9NcWxu1EkuQSdVFi4pqf2bRskvy9HrR7FcuPL3VkQNZZdCbo3HLFrPm4c+ZoqLzTeWmi03LNgCLDpk8WmPjeaa05NNm66ZS0xw0WJ+5DaqQ9IU8tO+RFNfWRq1MmDBhXqxBhipfI9/E+zDwtDchpEryjDoIJibtKskPREcGZJVBw/K2WtrFCszKlZeY4lUXm8aGCzrDwcaeIUPxaPV155nykjtN45bqbtsHMtrmDu7dneza2qiVWIVMikcDNobo2ENqXLhUkmdoD7mWQsPe5l3RdKRAxqzCeLHilXeYFSteZzaUX2xaWrqD1JO2bDvPVG26zGzZuN5sqzmzoZttAFn7vkdmubY2aiU+Pj4jliGTUvIHNvpl2l20lHdRmaQkr3n2BwMu6ciAjHaxLaaynMld32WKiy8y9XVvDDyTC1FPiufbtOF6U1dFU8CZo6cFWevuHamurY1amThxYia9KFyjjFUlX6NAQk8X5iyhJM9wHnvmqsHWkQHZpqBYsb74flNUdJ4p3/CmoPG5N7mYrUBZU/s6U75+smmuqem2DZRuXGXr1n6/rq7uHtfeRqVMmjTppokTJ/6E3OVcbJTujypfo48mPV/0hJjB9F62jgTI6FW/eWOxWbnig+bhlReampqLeqwonqmv68zdminlf9zUBM9DC+sTSe5XYSrKS01dXcNf6hsb25ubm29z7W7USXJy8vumTp26fsKECb8jdGR+e9cwY1EJIQkf9SDDodKRABmNz6Vrp5nCFW8wpevoQkXjc+8gAy7a0eprAew6s2XjctNU272yaENWvn5dEIYzxXt9ff0fGhoayuvr6y91bW/USVJS0g2TJ09ujouL+wt3edcoY0010zEQuGAMpp5tyPA4PInz4ZVXm1WrLjB1NRd2tnsF+Vh00ICroeE8U1nxbrOhZJKprdhgtgVhYqSxZq9BpqIS+S+P3Kqvr/9FY2Pj4pqamne4tjfqJDU19d6EhIQXYj2EHDWQ1daa9auTzPIVbzAl695ktjWTi3UH6rTnajo/gBAPtmXLhaZ83e2murzQNG1lwGdYiBgdMqmeCFRbW/v9xsbGKa7djTo5ceLEm2fOnJkZHx//CrDFYgg5GiCjxF5btdE8vPI6U1T0erO5+uIeu1Dx+5atF5gNJR83lWXZpn4zI6XDixzdNTJkKE0oPMCka/T44bq6ultd2xt1kp2d/dFp06Y1xMXF/U+swTa8kGUM2uNs+wRZbY2pKJ1vih6+0KxZ+ybT3HRBULw4E67zzbam84P2r7q680zFxo+YDetnBL30m2trTNPpMn2kELH3kElpOiGEbGho+F1jY+PK1tbW97i2N+okNTX18wkJCYcJH2MlXxsuyKhapjMj87BDVmkaN1eZ5QW3mmXLLzAVm/Bibg52fqdna6CB+b2mbP0DnZ2Aa+q6tYH1TnsHmZR8Dc9WV1f3o4aGhnkvv/zyha7tjTqZNm3apPj4+H+kCnmu52vDAVnns88Wm8WLFgbTwaWGQNNX7S1kjHyuKl9uFi/8gFlecLFpbrzgNFi8Bg3RzeeZ6s0XmtJ1t5nqDUWmcWuNaa5lJqtK0xzMZNV9vdG1b5ChmjaPSmRjY+PTq1ev/rxrd6NOioqK3pmYmLh8woQJvzqXS/5DBRmei7Y3eo/Qi6TzcVMlwzZNt3R7fY0pXT3fZMx7oykvfZNpCRqfX8u7amrONxVlHzcVpVmmvqrKNAdlea2vs6+ju86ete+Q2b1ueIrQokWLnnZtbtTKnDlzrpg8eXLF+PHj/3wu5muDDRlw0d8RuPRoW01nN5xz4UsZ0rJxfb6ZOfPtZsPGC8yO7V3tXXV0i7rcbCyZYeoqN5rmrbX9DA3DtPeQ2aPMGe2A1+daLFmy5BnX1ka9pKamfnHSpElPkKudS/naYEJGjxE9m5q+kRougzHxejYg6+wUXG3yc6eblSvfbxrqzjPVVe80ZWvHma2b1nZOkHO6JN+f0DBcG7dsMmUl60xdCFhSnRvOlR4ZzHnkAYxLly59wrUxL12SlJQ0JT4+/h/Olfa1wYIMA8F70QeS0JC7sz2k5uxB1tlhlxxr84YVprIs2VRvzAt64jfXdM0gPCRaGREyhYZ4ec67O9oByJYsWeIhiyb5+fnvmjJlyuqJEyf+dqTnawOBzM67CA0ZHKoneLqGdTYhk9HTd7GlpsZsC+AarNCwu/LgirqqDaZ03ZozzoE8O3kXc1NqtIN7Xj1kfZDMzMzrp06d2jRhwoT/b6Tma/2FTKEh7xl/pruzC9fIgWzoldmJG7dUmOoN603Z+jVmc3V1AJY9ypwpIezQMEy7wsUTrj15iSJz5879Qnx8/JMjMV/rD2QYiUJDAeRC5WosQ8b2eSLn1or1pmRtsanYuDEIExsam4Lj5gZE3qWJX7lBuefUVu/J+imnTp26YOrUqTMmTJjw3ZGUr/UWMjs0LCwsDELDrm5B3YAK01iEjO0y3z4djzeWrDHl5aWBt2oM4MKzdz4TgFDazbuiqYdsgJKVlfWuadOm0b727yMhX+sNZNx5MRKGwyg0DMu7omksQcYcHi01m4JtV5SuNWUl64M8q6HrvHCsVVVVwezOqra65zSa+nBxkCQpKemqiRMnPsKQmrOZr/UEmYyESXXsknxfNVYgI+8Css0bOkPDyspNXXB1hoZ6JgDnrb+jzLsge9y1GS/9lMTExNsnTpx4AtDORr4WCTIMhAlMaSClJN+X0DBMz3XIgryrptpsrSg1ZetWmYqNG0xtbd1pz4XyLDbOXbRnAvRGPWRDIDwxNDExMSU+Pv6Hw52v2ZC5JXnm/1Di7kLTVz1XIevMuzaZmqpys7FsrSkrXWe2bt1yOmTmuMhPyVO5KQ3GBEQ+XBxCKSgoeN/kyZNXTZgw4TfDFUICWUpKSgCZysrckfFagwGX9FyEjPYuSvKV5etM6fo1pqq6KggNmxo64cLD80zxgYSGYdoF2UnXPrwMoqSnp183efLkAxpSM5SwARkPPiS84SES5BQDDQ3D9FyCjPXRS4T2rpI1xaaqssI0NNBTozMs5NxwrjS7V08l+b4qBZOlS5eecu3CyyCLMeb8mTNn3j9x4sTnhzJfY+LT6dOnB6Ehw+IH03vZei5AFqynpjJ4oPuGkjVmY3mZqampPQ1XU9fEr+oKNZC8K0xZF2FnQUHB7wsKCvxjl4ZLNm7cePH06dOTJ0yY8PJQjV/DmyUmJgZ3UCAbigcKNjU1m3Xr1pjkWdNM+giDrJFOxLVMUVBuNpSsNuVl603N1q0BXJ15V3NwEwKASF2hBqLAxczONJEsX778wJo1az7t2oGXYZD09PS/mTRp0ua4uLg/DEW+pgcKUgTRAwUH06uxLgw1PWWuSUqcYlKTBjZCerAgozGZHvNV5F1rV5vN1ZtNQ2NDZ+7V9Sw2erYM9IEbkZQCEzlYXl7et5YvX+4n1hkJMnPmzE/Fx8d3DEUIqQlP8ZZUykjsGa07WPkZoDFuqnBZQQDJnBlTTXoIQL3R/kKmx9F25l2VQXsX/QwrN1WY+rrXeshzzLR3qY/mYOddhJx4xry8vF8XFBTkV1VVvc291l7OsiQkJCTGx8d/cyhK/oSPY8eONVOmTAlGNWNwvXkaTG80CEe3tZiKio1m4YIsM3fmtCCEdCHqSfsLGQUNGpRrKsuCvKu8dP3prlCNXc0VFRsrgtCNG01vu0L1VpV35ebmvpqfn7+rsLDwevfaehlBUlpa+tbp06cvmThx4k+HIoTUA+Bnz54dVNO4ww9WvtbY3GnQ60vWmezM9MCrpczufQjZH8gIDeury83G0jXBWC+8qt3eVV1ddUbeNZhwoeRdhId5eXmPrVix4m73enoZwbJ48eLLJ0+evD0uLu6vwObCMlDVAwVpT6PDKyHkYORrnUPvOx/htKqoyKTOnW3mzCBfozAyy6TOmdUNrj5DVlNhmms7f99Uts6sX7ems59h0A7I9ju7QtGzZbDbu6RdBQ3g+sny5cvnUDl2r6GXc0SSkpK+lJCQcHKo8jVCSNbblwcK9kYFW/XmKpOXuziYNm7ujKkmLUoVsjeQERZu21pltm4sMRvWrzYbN240tXWvdYVi2+oKpZK8C8hAVHlXbm7ubwsKCgrpbOBeMy/noLS0tFw0Y8aM5Pj4+CEZUkO+RnGEfI27cycggxRCBu1R20x5+Qaz8KEcM2fmdJM8MzxfiwaZ8q7arrxrQ1nnEJSGxteex0YFFQ/TlyEovVUr7/prYWFhQ3Fx8TXudfISA5Kfn/+OhISEIXtKjR4oSAhJaR6vJu8wUKVdCuDWr1tnMtJSTFJIvhYJMuBq2FJhNpWuCbpCbd1CSf61vIt+hwCQnZ09ZHlXV5vXM8uXL7/LvS5eYlDS09M/ER8fvzsuLu7/hqI4Qr6Gt8QjUEgYtHytvtND1tTWmqIVhSa9K19TCOlCBlxMw0Z7V9n6taaqstLU178Gl9q7AGuo8q4u7/VPK1euTP/e9773RvdaeIlxmT179himQBiKfE0h5IMPPhjkIUAyWPlaUPJv3ma2bK42y/KWmjlBvjatC7JZgdeiarh5Y4kpW19sNlVssPKuxmAfmCx0ySAMQQlThYZ5eXm/X758eXFlZaXPu0azGGMuSEhIyJw0adIPhiKE1APgk5KSAsPuBGSQ8rWu5oPysjKTM39+UPJPnjXdbK4oMRVla01p6TpTU9vV3kV42NQUhLGUzAkNBzvvQgkLuank5+cfXLZs2S3u+fYyioUp66ZOnVoWFxc3JLNoka8BXHp6ejDWajC6aDXU15qG+jrTxJRzDY1mdXGxSU9NNuvXFJutW7YEeVfQFaq5Oah80ojen6H/vVF1hVq6dOkPCgsLE9zz68XLaUlOTv4sT6khfBzs9jV10WK9hGhU9wYrhGQdFEdYJ21cgcfsKrowTYLmJHHhGKgq78rLy/tFYWFhHs9DcM+pFy+hMnPmzAfj4+O/PhQlf4WQ06ZNCwxUJf9Bgc3qZ1hWVhaEg0M1BAXPmJub+4eCgoKyoqIi/9xnL32XLVu2vGXq1KmFcXFxQzIqW738eQg8Y7IAbSAl/9e6QlUHuZH6GbqADEQ1BIXwMD8///GioiKfd3kZuKSnp1/FkJoJEyb8aShgAzReMzMzg2nT+lry7wwVO4f+M9W1RicPpudClXcVFBS85PMuL0Mic+bMuS0+Pv6xoZj1WCX/SZMmBd6HNqze5GvyfAxB4X/Rprrur1It7AoNf7Fy5cqM/fv3v909N168DKokJibOnjRp0g+HquRPf8gZM2YEc8RHKvkHJfnGxqDvIRAQGg5F3kXOmJ+f/z/Lli2rKyoqutI9F168DJlUVVW9Z+rUqWsnTpz4u6EIIVXyZ0IfQFIIqdBw8+bNQz4Epasr1HMrVqy43T1+L16GTR566KFPT506lS5agx5C2iV/ciy6aAEZHk4PanDhGKhSkic0XLp06Y+WLVuWVFVV5R+I7mVkSFJS0n2TJk16dihK/hqVTRctje8a7NDQyrt+W1hYuHbx4sXvdY/Ri5ezLi+//PKFM2bMYFT2kDzo8K677grCR6p8LiT9VUDtGjz5v/n5+Y/4IShezgnJysq6OiEhoSUuLu5/B7PXCKFjampqENK5sPRHgbVrTsNn165dO8Y9Di9eRrx0jco+NVhzQw4WZOoKlZ+f/8Pi4uK5fgiKl3Na6OWflJSUPmnSpB8NtAo5UMiskvzvli1bVllaWvpBd3+9eDlnZc2aNR+YMmVK1YQJE/o9EWt/IVPe1TUr1KHi4uJPufvnxUvMSGpq6ud4cEZ/eo30BzJ1hcrNzf12UVHRdHd/vHiJWUlPT0+YPHlynyZi7QtkmhVq6dKlPy8oKFhIZ2d3H7x4iXnZv3//W6ZMmbI0Pj6+V738ewOZ4KIr1NKlSxtWr179YXe7XryMOlm6dOk1kydPboiLi/tjNNiiQaYhKPxWUFBwpKio6LPudrx4GfWSmpp6c0JCQnukiX0iQUbeRW+N/Pz8by9btuwBd71evHhxZPr06TMTEhJectvXXMisp6D8W2Fh4fKWlpZL3HV58eIlghQVFb0lMTExPz4+/hcKIQWZemrk5eUxG++2devW+SEoXrz0V4qKii6bPHlyy4QJE/6PjsIZGRnB6Oe8vLynV69e/SV3eS9evPRTUlNT7xo/fvyJtLS0769bt26eH4LixcsQSH19/RuKiop83uXFixcvXrx48eLFixcvXrx48eLFixcvXrx48eLFixcvXrwMt/z/nn8/MzAtU2gAAAAASUVORK5CYII=;" parent="1" vertex="1">
          <mxGeometry x="118.60000000000001" y="735" width="52.14" height="80" as="geometry" />
        </mxCell>
        <mxCell id="vcLE8csJAE1lBY_zovCR-3" value="" style="group" vertex="1" connectable="0" parent="1">
          <mxGeometry x="99.67" y="660.5" width="90.00000000000001" height="64.5" as="geometry" />
        </mxCell>
        <mxCell id="YWgGbhT9v-dE-4aeQCzL-1" value="" style="rounded=1;whiteSpace=wrap;html=1;fillColor=#FF6666;strokeColor=#1A1A1A;arcSize=10;strokeWidth=2;" parent="vcLE8csJAE1lBY_zovCR-3" vertex="1">
          <mxGeometry y="6" width="90" height="56.5" as="geometry" />
        </mxCell>
        <mxCell id="YWgGbhT9v-dE-4aeQCzL-2" value="" style="shape=image;verticalLabelPosition=bottom;labelBackgroundColor=default;verticalAlign=top;aspect=fixed;imageAspect=0;image=https://static.thenounproject.com/png/72238-200.png;" parent="vcLE8csJAE1lBY_zovCR-3" vertex="1">
          <mxGeometry x="17.33" width="56" height="56" as="geometry" />
        </mxCell>
        <mxCell id="YWgGbhT9v-dE-4aeQCzL-7" value="&lt;b&gt;&lt;font style=&quot;color: rgb(0, 0, 0);&quot;&gt;PLC 01&lt;/font&gt;&lt;/b&gt;" style="rounded=0;whiteSpace=wrap;html=1;strokeColor=none;fillColor=none;" parent="vcLE8csJAE1lBY_zovCR-3" vertex="1">
          <mxGeometry x="11.329999999999998" y="39.5" width="70" height="20" as="geometry" />
        </mxCell>
        <mxCell id="vcLE8csJAE1lBY_zovCR-76" style="edgeStyle=orthogonalEdgeStyle;rounded=1;orthogonalLoop=1;jettySize=auto;html=1;exitX=1;exitY=0.5;exitDx=0;exitDy=0;exitPerimeter=0;entryX=1;entryY=0.5;entryDx=0;entryDy=0;endArrow=none;endFill=0;strokeWidth=3;curved=0;strokeColor=#6600CC;entryPerimeter=0;" edge="1" parent="1" source="vcLE8csJAE1lBY_zovCR-47" target="vcLE8csJAE1lBY_zovCR-77">
          <mxGeometry relative="1" as="geometry">
            <mxPoint x="974" y="549" as="sourcePoint" />
            <mxPoint x="971.5" y="767" as="targetPoint" />
            <Array as="points">
              <mxPoint x="1050" y="549" />
              <mxPoint x="1050" y="767" />
            </Array>
          </mxGeometry>
        </mxCell>
        <mxCell id="vcLE8csJAE1lBY_zovCR-77" value="" style="sketch=0;points=[[0,0,0],[0.25,0,0],[0.5,0,0],[0.75,0,0],[1,0,0],[0,1,0],[0.25,1,0],[0.5,1,0],[0.75,1,0],[1,1,0],[0,0.25,0],[0,0.5,0],[0,0.75,0],[1,0.25,0],[1,0.5,0],[1,0.75,0]];outlineConnect=0;fontColor=#232F3E;fillColor=#7AA116;strokeColor=#ffffff;dashed=0;verticalLabelPosition=bottom;verticalAlign=top;align=center;html=1;fontSize=12;fontStyle=0;aspect=fixed;shape=mxgraph.aws4.resourceIcon;resIcon=mxgraph.aws4.s3;" vertex="1" parent="1">
          <mxGeometry x="922.56" y="743" width="48.25" height="48.25" as="geometry" />
        </mxCell>
        <mxCell id="vcLE8csJAE1lBY_zovCR-78" value="" style="sketch=0;points=[[0,0,0],[0.25,0,0],[0.5,0,0],[0.75,0,0],[1,0,0],[0,1,0],[0.25,1,0],[0.5,1,0],[0.75,1,0],[1,1,0],[0,0.25,0],[0,0.5,0],[0,0.75,0],[1,0.25,0],[1,0.5,0],[1,0.75,0]];outlineConnect=0;fontColor=#232F3E;fillColor=#C925D1;strokeColor=#ffffff;dashed=0;verticalLabelPosition=bottom;verticalAlign=top;align=center;html=1;fontSize=12;fontStyle=0;aspect=fixed;shape=mxgraph.aws4.resourceIcon;resIcon=mxgraph.aws4.dynamodb;" vertex="1" parent="1">
          <mxGeometry x="922.18" y="648.25" width="48.62" height="48.62" as="geometry" />
        </mxCell>
      </root>
    </mxGraphModel>
  </diagram>
</mxfile>
